<?xml version="1.0" encoding="UTF-8"?>
<svg id="Layer_2" data-name="Layer 2" xmlns="http://www.w3.org/2000/svg" viewBox="0 0 261.52 262.38">
  <defs>
    <style>
      .cls-1 {
        fill: #000;
      }

      .cls-1, .cls-2, .cls-3, .cls-4, .cls-5, .cls-6 {
        stroke-width: 0px;
      }

      .cls-2 {
        fill: #e7e6e5;
      }

      .cls-3 {
        fill: #a7dbda;
      }

      .cls-4 {
        fill: #71cad1;
      }

      .cls-5 {
        fill: #fff;
      }

      .cls-6 {
        fill: #119046;
      }
    </style>
  </defs>
  <g id="Layer_1-2" data-name="Layer 1">
    <path class="cls-5" d="M261.07,132.08c0,71.97-58.34,130.31-130.3,130.31S.46,204.04.46,132.08,58.8,1.77,130.76,1.77s130.3,58.34,130.3,130.3"/>
    <path class="cls-1" d="M249.27,172.93c-.33.94-.59,1.07-1.47.6-2.28-1.22-4.59-2.38-6.94-3.47-.86-.4-1.1-.91-1.11-1.84-.17-15.82-2.26-31.36-6.94-46.52-.52-1.69-1.55-3.38-1.53-5.05.02-1.64,1.14-3.24,1.7-4.89,3.22-9.42,5.38-19.09,6.72-28.94.16-1.2.47-1.45,1.58-.95,1.7.76,3.45,1.43,5.19,2.09.6.23.95.61,1.18,1.2,3.5,8.87,5.97,18.02,7.39,27.45.93,6.14,1.35,12.31,1.37,17.72,0,15.14-2.37,29.07-7.14,42.6M235.77,171.49c-7.96,11.29-16.43,22.14-26.46,31.69-2.65,2.51-5.41,4.9-8.42,6.97-.5.34-.99.63-1.62.66-10.42.52-20.77.1-30.94-2.51-.15-.04-.29-.14-.44-.21-4.49-1.03-8.72-2.73-12.66-5.14-.44-.27-.62-.59-.63-1.13-.25-8.57-.86-17.12-2.03-25.62-1.16-8.5-2.76-16.9-5.54-25.04-.31-.89-.09-1.32.59-1.88,14.24-11.7,26.79-24.99,37.39-40.09.6-.85,1.08-1.09,2.13-.76,13.09,4.11,26.46,7.01,39.95,9.43.98.17,1.52.5,1.73,1.47.19.86.51,1.7.77,2.55,1.68,4.58,2.76,9.33,3.75,14.09,2.18,10.45,3.22,21.03,3.46,31.69.03,1.39-.18,2.6-1.03,3.8M193.81,239.57c-14.89,8.6-30.85,13.94-47.94,15.97-9.36,1.11-18.72,1.23-28.07.12-3.86-.46-6.9-1.84-10.42-4.51-2.3-1.74-3.55-3.51-3.75-6.39-.39-5.65-.35-11.27.23-16.9.08-.79.36-1.05,1.1-1.22,2.73-.61,18.46-4.91,25.04-8.22,7.59-3.82,15.19-7.47,22.04-12.51.77-.57,1.3-.58,2.08-.06,2.84,1.88,10.95,4.82,10.95,4.82,5.3,1.38,10.65,2.45,16.13,2.91,5.59.47,11.19.53,16.79.28.63-.03,1.02-.06,1.03.79.04,7.1-5.03,24.82-5.21,24.93M100.03,248.28c-4.63.51-9.27.53-13.81-.4-3.19-.65-6.09-2.32-9.02-3.74-20.04-9.73-53.04-42.07-53-56.03,0-3.18-.41-6.34,0-9.51.22-.2.4-.04.57.07,8.37,5.22,17.61,7.29,27.34,7.65,3.27.12,6.53,0,9.78-.34.93-.1,1.41.14,1.92.95,6.04,9.67,12.94,18.68,21.01,26.76,4.15,4.14,8.65,7.85,13.49,11.15,0,0,2.75,2.03,2.47,4.25-.75,5.99-.72,12.02.14,18.02.12.85-.09,1.09-.89,1.17M8.06,128.58c-.25-1.91-.05-3.67.52-5.49,4.18-13.4,10.18-25.85,19.14-36.76,1.18-1.44,2.29-3.1,3.81-4.06,1.6-1.01,3.6.04,5.41.22,10.47,1.08,20.96,1.77,31.48,2.11,1,.03,1.12.33,1.09,1.24-.3,10.28,1.84,20.13,5.24,29.76,2.86,8.11,6.68,15.76,11.3,23,.47.74.52,1.22-.03,1.97-9.26,12.8-16.88,26.51-22.69,41.21-.33.82-.74,1.23-1.63,1.24-1.02.01-2.03.15-3.05.18-1.27.03-2.54,0-3.82,0-9.33.04-18.29-1.56-26.6-6.05-2.56-1.38-4.53-3.18-6.02-5.78-7.59-13.34-12.22-27.62-14.16-42.81M6.68,118.62c2.74-26.22,12.75-49.28,30.06-69.19-.49,1.25-.98,2.49-1.47,3.74-3.26,8.2-5.26,16.66-5.43,25.52-.07.49-.11.95-.52,1.36-8.46,8.53-14.4,18.7-19.08,29.66-1.19,2.8-3.42,8.81-3.57,8.91M91.77,12.32s.97.36-1.44,1.65c-8.49,4.57-30.24,15.31-30.47,14.41-.29-1.15,21.27-12.51,31.9-16.07ZM75.46,80.61c10.99-11.98,21.85-24.07,32.74-36.13.56-.62,1.05-1.04,2.03-.93,12.82,1.53,25.51,3.75,37.91,7.42,5.78,1.71,11.43,3.78,16.76,6.63.55.3,1.03.58,1.26,1.3,5.06,15.52,10.99,30.72,16.87,45.93.37.95.27,1.59-.3,2.4-10.56,15.03-23.08,28.24-37.23,39.92-.66.55-1.21.63-2.06.4-13.14-3.61-26.45-6.41-39.99-8.05-4.42-.54-8.85-.99-13.31-1.2-.52-.02-.85-.16-1.14-.61-8.96-14.2-15.01-29.42-16.36-46.3-.08-.97-1.27-7.37,2.8-10.78M130.16,5.99c16.38-.03,31.22,2.72,45.58,8.15.97.37,1.83.85,2.62,1.51,7.05,5.8,13.51,12.13,18.19,20.08.63,1.08.4,1.38-.65,1.83-10.18,4.32-19.51,10.05-28.07,17.03-.46.38-.8.74-1.53.35-8.75-4.67-18.18-7.42-27.78-9.66-9.1-2.12-18.29-3.67-27.58-4.62-1.04-.11-1.6-.51-2.08-1.46-4.2-8.3-9.83-15.54-16.6-21.89-.79-.74-.69-.95.18-1.44,6.44-3.68,13.24-6.51,20.38-8.45,0,0,6.75-1.68,17.35-1.43ZM187.42,19.44s.72.25,1.02.4c11.57,5.99,21.96,13.6,31.2,22.78.47.47.89.98,1.33,1.48,4.12,4,7.73,8.42,11.13,13.04,5.16,7.02,9.56,14.49,13.16,22.44.05.11.08.24.18.56-2.01-.71-3.89-1.35-5.75-2.04-.2-.07-.34-.36-.48-.57-3.93-5.8-8.17-11.35-12.79-16.62l-.18-.32c-4.27-4.64-8.58-9.25-13.25-13.51-3.73-3.4-7.56-6.68-11.62-9.67-.56-.41-.99-.87-1.31-1.49-3.14-6.15-12.62-16.47-12.62-16.47h0ZM261.01,127.26C259.69,56.8,203.76.94,132.95.01,59.12-.95-.86,59.33,0,132.8c.85,71.29,59.11,129.58,131.16,129.58,72.76.09,130.12-60.08,129.51-133.24l.33-1.88Z"/>
    <path class="cls-2" d="M167.89,208.1c.03-.47.44-.57.76-.77,2.83-1.77,5.8-3.35,8.44-5.36,2.98-2.28,6.08-4.43,8.9-6.93,3.41-3.04,6.87-6.03,10.03-9.33,4.51-4.71,8.62-9.75,12.4-15.06,2.24-3.14,4.33-6.37,6.24-9.71,2.85-4.98,5.4-10.12,7.55-15.46,1.82-4.54,3.53-9.12,4.88-13.82.68-2.38,1.41-4.76,1.66-7.24.09-.91.43-1.72.84-2.51,1.68,4.58,2.76,9.33,3.75,14.09,2.18,10.45,3.22,21.03,3.46,31.69.03,1.39-.18,2.6-1.03,3.8-7.96,11.29-16.43,22.14-26.47,31.69-2.65,2.52-5.41,4.9-8.42,6.97-.5.34-.99.63-1.62.66-10.42.52-20.77.1-30.94-2.51-.16-.04-.29-.14-.44-.21"/>
    <path class="cls-2" d="M256.4,130.33c0,15.14-2.37,29.07-7.14,42.6-.33.94-.59,1.06-1.47.6-2.28-1.22-4.59-2.38-6.94-3.47-.86-.4-1.1-.91-1.11-1.84-.17-15.82-2.26-31.36-6.94-46.52-.52-1.7-1.56-3.38-1.53-5.05.02-1.63,1.14-3.24,1.7-4.89,3.22-9.42,5.38-19.09,6.72-28.94.16-1.2.47-1.45,1.58-.95,1.7.76,3.45,1.43,5.19,2.09.6.23.95.61,1.18,1.2,3.5,8.87,5.97,18.02,7.39,27.45.93,6.14,1.35,12.31,1.37,17.72"/>
    <path class="cls-2" d="M226.22,60.59c.37-1.43-.3-2.71-.74-3.96-1.32-3.77-2.57-7.57-4.33-11.17-.2-.41-.34-.87-.18-1.35,4.12,4,7.73,8.43,11.12,13.04,5.16,7.02,9.57,14.49,13.16,22.44.05.11.08.24.18.56-2.01-.7-3.89-1.35-5.75-2.04-.2-.07-.34-.36-.48-.57-3.93-5.8-8.17-11.35-12.79-16.62l-.18-.33h0Z"/>
    <path class="cls-6" d="M261.52,131.14c0-46.28-23.91-87.36-60.1-110.73-36.18,23.37-60.17,64.45-60.17,110.73s23.95,86.96,60.13,110.32c36.18-23.37,60.13-64.05,60.13-110.32"/>
    <path class="cls-4" d="M153.19,76.39c.21-.45.42-.91.64-1.36-.21.45-.43.9-.64,1.36"/>
    <polygon class="cls-6" points="153.16 76.45 153.19 76.39 153.16 76.45 153.16 76.45"/>
    <path class="cls-3" d="M261,142.98c.1-1.09.18-2.18.25-3.28l-58.46,29.61v-26.37l56.29-37.88c-.2-.99-.4-1.98-.62-2.96l-55.67,37.46v-33.1l46.9-30.42-.03-.06c-.21-.45-.42-.91-.64-1.36-.18-.38-.36-.76-.55-1.14l-45.69,29.63v-28.9l26.13-30.01c-.62-.71-1.25-1.41-1.88-2.11l-24.25,27.86V21.31c-.46-.31-.9-.6-1.37-.9-.47.3-.97.63-1.44.94v48.52l-24.23-27.83c-.64.69-1.27,1.39-1.89,2.1l26.11,29.99v28.93l-45.62-29.59c-.18.38-.36.76-.55,1.14-.21.45-.43.9-.64,1.36l-.03.06,46.83,30.37v33.1l-55.6-37.41c-.22.98-.43,1.97-.62,2.96l56.22,37.83v26.38l-58.43-29.56c.07,1.09.16,2.19.26,3.27l58.17,29.43v25.78l-51.32-23.87c.44,1.25.9,2.5,1.38,3.73l49.94,23.23v39.26c.46.31.93.67,1.4.98.47-.3.94-.61,1.4-.92v-39.29l50.17-23.32c.48-1.24.94-2.49,1.38-3.74l-51.55,23.97v-25.77l58.21-29.47Z"/>
  </g>
</svg>