<?xml version="1.0" encoding="UTF-8"?>
<svg id="Layer_2" data-name="Layer 2" xmlns="http://www.w3.org/2000/svg" viewBox="0 0 407.36 356.42">
  <defs>
    <style>
      .cls-1 {
        fill: #8eceef;
      }

      .cls-1, .cls-2, .cls-3, .cls-4, .cls-5, .cls-6, .cls-7, .cls-8, .cls-9, .cls-10, .cls-11, .cls-12, .cls-13, .cls-14, .cls-15, .cls-16, .cls-17, .cls-18, .cls-19, .cls-20 {
        stroke-width: 0px;
      }

      .cls-2 {
        fill: #ffd98d;
      }

      .cls-3 {
        fill: #ffd69f;
      }

      .cls-4 {
        fill: #a6b0bf;
      }

      .cls-5 {
        fill: #ff8224;
      }

      .cls-6 {
        fill: #58e06f;
      }

      .cls-7 {
        fill: #7e8691;
      }

      .cls-8 {
        fill: #9eacb5;
      }

      .cls-9 {
        fill: #9ad9e8;
      }

      .cls-10 {
        fill: #2b2e33;
      }

      .cls-11 {
        fill: #ff9331;
      }

      .cls-12 {
        fill: #80bfed;
      }

      .cls-13 {
        fill: #f7e6c6;
      }

      .cls-14 {
        fill: #8e97a5;
      }

      .cls-15 {
        fill: #474c56;
      }

      .cls-16, .cls-17 {
        fill: #fff;
      }

      .cls-17 {
        opacity: .39;
      }

      .cls-18 {
        fill: #c7d4e2;
      }

      .cls-19 {
        fill: #ffb27d;
      }

      .cls-20 {
        fill: #ffc48f;
      }
    </style>
  </defs>
  <g id="Layer_1-2" data-name="Layer 1">
    <g>
      <path class="cls-13" d="M149.69,12.23c-14.85.01-29.98,1.88-43.42,8.19-13.44,6.31-25.08,17.52-29.4,31.73-4.97,16.33.09,34.06-2.35,50.96-6.26,43.44-57.68,66.85-71.33,108.57-10.15,31.03,4.86,67.5,32.42,85.02,9.07,5.77,21.66,10.9,31.35,15.59,4.23,2.05,10.31-2.22,14.32.23,18.8,11.5,24.13,24.51,42.75,39.93,6.77,5.61,34.03,6.64,51.7-5.9,13.24-9.39,28.86-15.43,44.66-19.17,20.37-4.82,41.67-1.08,62.6-1.53,20.93-.46,44.09-6.82,54.65-24.89,5.85-10.01,6.91-22.14,11.78-32.67,8.09-17.48,25.53-28.5,37.5-43.59,20-25.21,21.57-65.78-1.82-87.88-9.02-8.53-20.7-13.73-30.17-21.75-8.6-7.28-15.23-16.86-19.03-27.47-4.68-13.05-5.07-27.37-10.08-40.3-8.81-22.71-31.17-38.18-54.84-43.97-23.66-5.79-48.58-3.17-72.48,1.54-15.62,3.08-32.93,7.36-48.8,7.38Z"/>
      <path class="cls-13" d="M74.8,41.57c-5.26,9.67-7.44,20.77-7.87,31.77-.42,11,.84,21.99,2.1,32.92-4.21-16.38-5.37-33.55-3.38-50.35.94-7.94,2.6-15.9,6.26-23.01,7.46-14.49,22.6-23.86,38.4-27.83,15.81-3.96,32.39-3.17,48.62-1.7-14.62,1.3-29.13,3.87-43.31,7.69-16.31,4.39-32.61,15.4-40.82,30.5Z"/>
      <path class="cls-13" d="M348.4,289.13c6.06-17.74,16.07-34.11,29.11-47.58-7.47,8.6-13.38,18.54-17.38,29.2-2.09,5.58-3.65,11.34-5.63,16.96-3.63,10.34-8.81,20.39-16.8,27.9-13.17,12.39-32.49,16.36-50.51,14.86,6.74.36,28.73-2.69,40.54-13.71,5.5-5.14,11.36-9.99,15.33-16.39,2.1-3.38,4.39-7.34,5.34-11.24Z"/>
      <path class="cls-13" d="M378.16,122.83c6.43,4.34,12.74,9.09,17.41,15.28,8.23,10.9,10.6,25.19,10.49,38.85,1.38-8.71,1.89-17.64.4-26.34s-5.08-17.17-11.12-23.59c-12.81-13.62-33.7-15.74-49.1-26.35,2.68,1.85,4.39,5.16,6.93,7.19,2.26,1.81,5.16,2.97,7.71,4.38,5.91,3.27,11.67,6.79,17.27,10.57Z"/>
    </g>
    <g>
      <polygon class="cls-10" points="107.74 76.48 139.47 295.91 302.06 269.47 303.81 265.05 265.49 54.45 109.52 72.23 107.74 76.48"/>
      <polygon class="cls-15" points="109.52 72.23 141.25 291.65 303.84 265.22 267.27 50.2 109.52 72.23"/>
      <path class="cls-10" d="M117.23,82.71l34.24,199.27s136.19-21.61,136.19-23.19-38.23-194.99-38.23-194.99l-132.19,18.91Z"/>
      <g>
        <path class="cls-16" d="M121.47,79.59l34.24,199.27s136.19-21.61,136.19-23.19-38.23-194.99-38.23-194.99l-132.19,18.91Z"/>
        <g>
          <polygon class="cls-18" points="166.53 92.96 244.02 81.02 244.8 83.89 167.16 95.52 166.53 92.96"/>
          <polygon class="cls-18" points="168.57 101.56 224.43 92.96 225.44 95.7 169.2 104.13 168.57 101.56"/>
          <polygon class="cls-18" points="170.21 109.3 213.15 102.69 213.92 105.42 170.84 111.87 170.21 109.3"/>
          <polygon class="cls-18" points="196.67 236.75 274.16 224.81 274.95 227.68 197.3 239.31 196.67 236.75"/>
          <polygon class="cls-18" points="198.71 245.35 254.57 236.75 255.58 239.49 199.34 247.91 198.71 245.35"/>
          <polygon class="cls-18" points="200.35 253.09 243.29 246.48 244.06 249.21 200.98 255.66 200.35 253.09"/>
          <polygon class="cls-18" points="175.15 126.11 231.6 117.21 232.37 119.94 175.78 128.68 175.15 126.11"/>
          <polygon class="cls-18" points="177.28 133.68 220.22 127.07 220.99 129.79 177.91 136.24 177.28 133.68"/>
          <polygon class="cls-18" points="179.07 142.92 222.01 136.3 222.78 139.03 179.7 145.48 179.07 142.92"/>
          <polygon class="cls-18" points="179.43 159.71 220.15 153.1 220.88 155.82 180.02 162.28 179.43 159.71"/>
          <polygon class="cls-18" points="181.72 168.11 222.44 161.5 223.17 164.23 182.31 170.68 181.72 168.11"/>
          <polygon class="cls-18" points="183.71 177.7 205.3 174.19 205.77 176.87 184.3 180.26 183.71 177.7"/>
          <polygon class="cls-18" points="189.97 201.54 246.42 192.64 247.19 195.37 190.6 204.1 189.97 201.54"/>
          <polygon class="cls-18" points="192.1 209.1 235.04 202.49 235.81 205.22 192.73 211.67 192.1 209.1"/>
          <polygon class="cls-18" points="193.89 218.34 236.83 211.73 237.6 214.45 194.52 220.91 193.89 218.34"/>
        </g>
        <g>
          <path class="cls-14" d="M138.96,117.62c-.19,0-.36-.14-.4-.33l-3.93-21.03c-.04-.22.1-.43.32-.48l22.13-4.36c.11-.02.22,0,.31.06.09.06.15.16.17.27l3.6,21.33c.04.22-.11.43-.33.47l-21.8,4.06s-.05,0-.08,0ZM135.5,96.51l3.79,20.23,21.01-3.91-3.47-20.52-21.32,4.2Z"/>
          <path class="cls-14" d="M148.22,151.91c-.19,0-.36-.14-.4-.33l-3.94-21.03c-.04-.22.1-.43.32-.48l22.13-4.36c.11-.02.22,0,.31.06.09.06.15.16.17.27l3.6,21.33c.04.22-.11.43-.33.47l-21.8,4.06s-.05,0-.08,0ZM144.76,130.8l3.79,20.23,21.01-3.91-3.47-20.52-21.32,4.2Z"/>
          <path class="cls-14" d="M155.1,186.2c-.19,0-.36-.14-.4-.33l-3.93-21.02c-.04-.22.1-.43.32-.48l22.13-4.36c.11-.02.22,0,.31.06.09.06.15.16.17.27l3.6,21.33c.04.22-.11.43-.33.47l-21.8,4.06s-.05,0-.08,0ZM151.65,165.09l3.79,20.23,21.01-3.91-3.47-20.52-21.32,4.2Z"/>
          <path class="cls-14" d="M162.97,227.98c-.19,0-.36-.14-.4-.33l-3.93-21.03c-.04-.22.1-.43.32-.48l22.13-4.36c.11-.02.22,0,.31.06.09.06.15.16.17.27l3.6,21.33c.04.22-.11.43-.33.47l-21.8,4.06s-.05,0-.08,0ZM159.51,206.86l3.79,20.23,21.01-3.91-3.47-20.52-21.32,4.2Z"/>
          <path class="cls-14" d="M171.15,263.37c-.19,0-.36-.14-.4-.33l-3.93-21.03c-.04-.22.1-.43.32-.48l22.13-4.36c.11-.02.22,0,.31.06.09.06.15.16.17.27l3.6,21.33c.04.22-.11.43-.33.47l-21.8,4.06s-.05,0-.08,0ZM167.69,242.26l3.79,20.23,21.01-3.91-3.47-20.52-21.32,4.2Z"/>
          <path class="cls-6" d="M152.08,114.3c1.02-8.02,2.05-16.04,3.07-24.06-1.27.17-2.54.34-3.81.51-.3,5.57-.5,11.15-.6,16.72-1.81-2.12-3.52-4.33-5.11-6.62-.83,1.52-2.07,2.6-3.52,3.49,1.93,1.38,3.56,2.84,5.09,4.73.76.93,1.49,1.88,2.29,2.78.27.31,2.61,2.25,2.59,2.45Z"/>
          <path class="cls-6" d="M160.6,148.34c1.02-8.02,2.05-16.04,3.07-24.06-1.27.17-2.54.34-3.81.51-.3,5.57-.5,11.15-.6,16.72-1.81-2.12-3.52-4.33-5.11-6.62-.83,1.52-2.07,2.6-3.52,3.49,1.93,1.38,3.56,2.84,5.09,4.73.76.93,1.49,1.88,2.29,2.78.27.31,2.61,2.25,2.59,2.45Z"/>
          <path class="cls-6" d="M166.95,182.09c1.02-8.02,2.05-16.04,3.07-24.06-1.27.17-2.54.34-3.81.51-.3,5.57-.5,11.15-.6,16.72-1.81-2.12-3.52-4.33-5.11-6.62-.83,1.52-2.07,2.6-3.52,3.49,1.93,1.38,3.56,2.84,5.09,4.73.76.93,1.49,1.88,2.29,2.78.27.31,2.61,2.25,2.59,2.45Z"/>
        </g>
      </g>
      <g>
        <path class="cls-7" d="M174.32,42.03c4.54-2.78,10.37-3.03,15.43-1.37,1.59.52,3.14,1.23,4.42,2.3,2.74,2.29,3.92,5.91,4.96,9.33-5.09,1.71-10.44,2.37-15.75,2.95-5.35.58-10.58,1.52-15.87,2.31-.64-5.99,1.48-12.26,6.81-15.52Z"/>
        <path class="cls-7" d="M189.68,34.77c-.4-2.11-1.13-4.33-2.86-5.59-1.39-1.01-3.2-1.23-4.92-1.22-.89,0-2.68.18-2.68.18-.02,0-1.83.45-2.67.75-1.62.57-3.25,1.38-4.22,2.81-1.21,1.77-1.14,4.11-.81,6.23.66,4.27,3.05,16.35,9.59,13.16-.11-2.53-1.16-5.29-2.12-7.62-.84-2.06-1.9-4.15-1.8-6.37.08-1.75,6.19-2.81,6.86-1.19.85,2.06.56,4.38.45,6.6-.12,2.52-.18,5.47.57,7.89,7.23.79,5.41-11.39,4.6-15.62Z"/>
        <path class="cls-7" d="M159.08,55.06c-2.11.78-4.25,1.57-6.13,2.8-1.88,1.24-3.52,2.98-4.19,5.13-.83,2.63-.13,5.49.73,8.11,1.11,3.41,2.49,6.73,4.12,9.92-.69-4.49,1.24-9.05,4.13-12.55,2.89-3.5,6.67-6.14,10.34-8.81,1.75-1.28,3.67-2.89,3.7-5.06.02-1.04-.49-2.1-1.29-2.76-1.06-.88-1.84-.31-3,.12-2.81,1.04-5.61,2.07-8.42,3.1Z"/>
        <path class="cls-14" d="M185.33,51.23s-31.09,2.53-33.13,12.56c-2.04,10.03,1.19,17.16,1.19,17.16l74.93-11.93s1.45-13.64-5.21-16.95c-11.96-5.95-37.78-.85-37.78-.85Z"/>
        <path class="cls-14" d="M178.24,41.81c4.54-2.78,10.37-3.03,15.43-1.37,1.59.52,3.14,1.23,4.42,2.3,2.74,2.29,3.91,5.91,4.96,9.33-5.09,1.71-10.44,2.37-15.75,2.95-5.35.58-10.58,1.52-15.87,2.31-.64-5.99,1.48-12.26,6.81-15.52Z"/>
        <path class="cls-14" d="M193.59,34.55c-.4-2.11-1.13-4.33-2.86-5.59-1.39-1.01-3.2-1.23-4.92-1.22-.89,0-2.68.18-2.68.18-.02,0-1.83.45-2.67.75-1.62.57-3.25,1.38-4.22,2.81-1.21,1.77-1.14,4.11-.81,6.23.66,4.27,3.05,16.35,9.59,13.16-.11-2.53-1.16-5.29-2.12-7.62-.84-2.06-1.9-4.15-1.8-6.37.08-1.75,6.19-2.81,6.86-1.19.85,2.06.56,4.38.45,6.6-.12,2.52-.18,5.47.57,7.89,7.23.79,5.41-11.39,4.6-15.62Z"/>
        <path class="cls-4" d="M223.11,52.08c-11.96-5.95-37.78-.85-37.78-.85,0,0-31.09,2.53-33.13,12.56-.51,2.52-.69,4.85-.67,6.94.96-2.03,2.62-3.79,4.51-5.04,2.91-1.94,6.35-2.9,9.74-3.8,13.85-3.71,27.89-7.06,42.21-7.81,4.84-.25,9.84-.18,14.31,1.68,2.31.96,4.31,3.89,5.9,5.82-1.14-5.95-2.39-8.15-5.08-9.49Z"/>
        <path class="cls-4" d="M177.25,44.29c-1.78,1.58-2.97,4.03-2.45,6.35.59-2.53,2.37-4.7,4.58-6.06s4.83-1.97,7.43-2.06c1.24-.04,2.55.01,3.64-.58.13-.07.27-.16.34-.29.13-.23.02-.54-.17-.72-.2-.18-.46-.26-.72-.32-4.11-1-9.53.91-12.65,3.68Z"/>
        <path class="cls-4" d="M177.45,32.14c-1.07,1.35-1.4,3.17-1.23,4.89.17,1.71.81,3.34,1.49,4.93-.37-1.73-.53-3.52-.18-5.25.35-1.73,1.24-3.39,2.66-4.43,1.14-.83,2.53-1.23,3.89-1.59.58-.16,1.31-.53,1.19-1.12-.11-.52-.8-.65-1.33-.62-2.33.13-5.01,1.34-6.49,3.21Z"/>
      </g>
    </g>
    <g>
      <path class="cls-19" d="M227.28,162.58c-1.42,1.91-2.85,3.92-3.26,6.26-.75,4.2,1.32,6.98,5.59,6.98,3.01,0,6.14-.99,8.65-2.15-1.18,1.84,1.24,6.54,3.38,6.94,2.15.4,4.16-.19,6.11-1.18-.3,1.12.47,2.31,1.49,2.87s2.23.63,3.39.66c10.61.28,21.39-1.65,30.83-6.5,4.09-2.1,8.16-5.05,9.56-9.43,1.05-3.28.41-6.93-1.13-10-1.54-3.08-3.92-5.66-6.42-8.02-5.03-4.73-10.81-8.78-17.34-11.02-7.31-2.5-15.66-2.56-22.6,1.11-5.73,3.04-5.99,7.45-9.43,12.26-2.76,3.86-5.99,7.41-8.82,11.22Z"/>
      <path class="cls-20" d="M228.14,155.34c8.67-1.36,11.85-5.65,16.98-9.03,1-.66,2-1.37,3.16-1.69,3.22-.88,6.32,1.45,9.06,3.35,6.89,4.78,14.93,7.55,22.86,10.27-.85,3.55-1.47,7.16-1.85,10.79-.24,2.32-.39,4.69.23,6.94,1.1,4.03,4.8,7.21,8.94,7.7,5.08.6,9.84-2.49,13.69-5.86,1.22-1.07,2.43-2.21,3.26-3.61,1.19-2,1.53-4.4,1.54-6.73.07-9.78-5.06-18.84-10.97-26.63-1.03-1.35-2.14-2.73-3.68-3.46-1.62-.76-3.48-.7-5.27-.75-9.55-.25-18.69-4-28.2-4.81-2.91-.25-5.95-.2-8.6,1.02-2.43,1.11-15.33,10.15-20.11,13.06-1.57.96-6.49,4.15-7.51,5.76-1.23,1.92,2.25,4.33,6.47,3.66Z"/>
      <path class="cls-20" d="M286.32,211.67c5.49,2.95,11.48,5.71,17.69,5.15,2.47-.22,4.88-.97,7.09-2.1,7.96-4.06,12.9-13.35,11.81-22.22-.92-7.47-5.54-13.87-9.31-20.38-6.07-10.48-10.42-22.34-19.28-30.6-1.35-1.26-3.48-2.44-4.88-1.23-.74.64-.91,1.7-1,2.67-.6,6.52.35,13.1.03,19.64-.31,6.54-2.16,13.46-7.14,17.72-2.55,2.18-5.72,3.49-8.9,4.53-3.25,1.07-6.8,2.52-7.52,6.34-.57,3.04,2.24,5.89,4.12,7.96,4.81,5.31,11.04,9.14,17.3,12.51Z"/>
      <g>
        <path class="cls-11" d="M301.57,101.27s.45-1.25-1.67-3.6c-1.79-1.99-3.2-1.8-3.2-1.8l-75.47,67.65,5.49,4.9,74.86-67.15Z"/>
        <path class="cls-5" d="M225.3,166.42l1.33,2.11,74.94-67.27s.16-.43-.14-1.25c-.2-.55-.7-1.31-.7-1.31l-75.44,67.71Z"/>
        <path class="cls-2" d="M220.45,164.42c.36-.51.76-1.05,1.36-1.23.6-.17,1.39.29,1.27.9.42-.25,1.01-.18,1.36.18.34.35.41.95.14,1.36.42-.19.95-.19,1.29.11.34.31.35.95-.05,1.18.49.05,1.06.25,1.16.73.1.51-.35.92-.79,1.2-3.59,2.31-7.3,4.48-11.04,6.53-.28.15-.58.31-.9.32-.59,0-1.08-.55-1.13-1.13-.07-.83.57-1.47,1.06-2.05.73-.87,1.46-1.75,2.17-2.64,1.42-1.78,2.79-3.6,4.1-5.46Z"/>
        <path class="cls-17" d="M221.2,164.46c.16-.19.38-.4.61-.31.24.09.25.43.22.68.14-.21.3-.43.54-.48.24-.05.52.23.38.43.24-.17.59-.33.8-.11.23.24-.04.63-.3.85-2.93,2.51-5.75,5.17-8.44,7.94-.42.44-.84.88-1.34,1.23-.37.26-.53.03-.4-.33.1-.28.39-.5.59-.71.63-.68,1.22-1.41,1.8-2.13,1.22-1.51,2.38-3.06,3.57-4.59.65-.83,1.3-1.66,1.97-2.48Z"/>
        <path class="cls-8" d="M209.92,177.67c-.21.28-.43.61-.38.96.02.11.06.23.15.3.21.17.52.05.76-.08,1.76-.98,3.42-2.15,4.94-3.48.13-.12.27-.24.36-.39.31-.49.08-1.19-.38-1.55-.35-.26-1.12-.54-1.56-.35-.46.2-.94,1-1.28,1.38-.91,1.04-1.79,2.11-2.62,3.22Z"/>
      </g>
      <path class="cls-20" d="M233.65,158.04c.3,2.62,2.4,4.6,4.33,6.39,8.53,7.88,16.33,16.55,23.27,25.86,2.06,2.76,4.06,5.59,6.42,8.11,3.12,3.33,6.85,6.05,10.84,8.27,2.42,1.34,5,2.52,7.74,2.81,3.61.38,7.2-.78,10.54-2.21,3.95-1.69,8.01-4.05,9.69-8.01,1.32-3.09.94-6.64.15-9.9-.71-2.93-1.77-5.86-3.77-8.12-1.99-2.26-4.76-3.67-7.5-4.91-9.49-4.31-21.73-3.44-30.02-11.69-5.24-5.21-10.56-9.96-17.65-12.06-4.48-1.33-14.95-2.27-14.06,5.47Z"/>
      <path class="cls-20" d="M318.96,233.86c6.48,9.89,12.96,19.78,19.44,29.67,4.89,7.47,34.48-18.54,25.95-29.17-12.72-15.86-25.76-31.46-39.11-46.79-4.21-4.83-8.47-9.66-13.46-13.69-1.69-1.36-3.53-2.66-5.66-3.08-6.01-1.16-10.9,5.04-12.71,10.88-2.56,8.27-2.97,21.73,2.83,29,2.81,3.52,7.5,5.26,10.86,8.18,4.83,4.21,8.37,9.68,11.86,14.99Z"/>
      <path class="cls-19" d="M293.69,216.19c2.82,1.07,5.77,1.92,8.78,1.88,5.43-.07,10.39-2.99,14.85-6.1-11.22-2.23-23.08-.68-33.98-4.12-5.7-1.8-11.01-4.95-15.28-9.14,3.55,3.13,6.55,6.46,10.46,9.21,4.72,3.32,9.77,6.22,15.17,8.27Z"/>
      <path class="cls-19" d="M331.26,252.64c-4.07-7.55-16.47-24.33-18.94-39.23-4.34,1.21-11.09,1.99-15.57,1.55,1.19.12,4.12,2.11,5.43,2.64,2.25.9,4.32,2.18,6.21,3.68,3.84,3.05,18.13,25.93,22.87,31.36Z"/>
      <path class="cls-19" d="M293.06,143.33c-.06.55-.17,1.13.03,1.65.16.42.5.74.82,1.06,12.09,11.78,16.91,29.4,28.57,41.61,1.86,1.95,3.89,3.74,5.91,5.53,2.66,2.35,5.32,4.71,7.97,7.06-.9-.81-1.75-1.67-2.59-2.55-13.38-13.98-22.95-31.09-32.06-48.16-2.62-4.91-5.77-10.64-11.41-12.5,2.61.46,3,4.11,2.76,6.3Z"/>
      <path class="cls-3" d="M233.72,159.19c.33,1.25,1.18,2.3,2.03,3.28,1.73,1.99,3.75,3.96,6.33,4.52.75.16,1.56.2,2.27-.09,1.42-.58,2.09-2.31,1.91-3.83s-1.02-2.88-1.87-4.16c-1.16-1.75-2.49-3.56-4.45-4.3-3.02-1.14-7.19.92-6.22,4.57Z"/>
      <path class="cls-3" d="M221.39,151.55c-.19.24-.39.56-.24.83.19.35.73.22,1.09.03,2.84-1.49,5.52-3.28,7.98-5.33.26-.22.54-.47.58-.81.25-2.09-4.3.78-4.8,1.11-1.73,1.15-3.29,2.56-4.6,4.17Z"/>
      <path class="cls-9" d="M342.42,289.7c2.29-7.14,3.84-14.61,6.99-21.41,6.07-13.13,17.42-22.61,27.77-32.91-8.12-9.47-16.69-18.5-26.39-26.22-1.8-1.43-3.68-2.84-5.87-3.46-1.99-.56-4.11-.43-6.16-.09-12.15,2.05-27.83,12.47-26.08,28.12.73,6.53,8.1,15.02,11.38,20.53,4.59,7.73,9.46,15.53,13.84,23.37,2.11,3.76,2.75,8.13,4.51,12.07Z"/>
      <path class="cls-1" d="M350.79,209.15c-1.8-1.43-3.68-2.84-5.87-3.46-1.99-.56-4.11-.43-6.16-.09-.34.06-.68.12-1.02.19.06.02.11.04.17.05,2.93.9,7.22,1.42,6.98,5.64-.17,2.92-3.27,4.6-5.81,6.07-6.24,3.62-11.24,9.33-14.02,15.99,2.73-3.86,6.09-7.27,9.91-10.05,3-2.18,6.54-4.03,10.24-3.72,5.21.44,9.09,4.98,11.66,9.54,3.42,6.07,5.6,12.82,6.42,19.74,4.46-4.66,9.27-9.1,13.88-13.69-8.12-9.47-16.69-18.5-26.39-26.22Z"/>
      <path class="cls-12" d="M350.79,209.15c-1.17-.93-2.37-1.85-3.67-2.55.15.17.3.34.44.5.34.39,3.99,5.42,3.6,5.61-5.25,2.62-10.27,5.7-14.99,9.19,4.8-3.03,9.9-5.58,15.2-7.62.39-.15.79-.3,1.2-.3.61,0,1.16.31,1.68.63,5.21,3.19,9.58,7.62,13.28,12.49,2.6,3.43,4.88,7.09,7.03,10.83.87-.85,1.75-1.7,2.61-2.56-8.12-9.47-16.69-18.5-26.39-26.22Z"/>
      <path class="cls-16" d="M331.58,210.54c-.37,1.34.31,2.91,1.56,3.5.6.28,1.27.35,1.93.4.78.05,1.57.07,2.32-.15.5-.14.98-.39,1.38-.73.9-.74,1.44-2.03,1.03-3.12-.23-.62-.72-1.11-1.25-1.51-2.13-1.61-6.12-1.47-6.97,1.61Z"/>
    </g>
    <g>
      <path class="cls-20" d="M175.7,193.49c-1.5,3.22-3.04,6.39-5.13,9.26-3.29,4.52-6.51,9.09-9.65,13.72-2.41,3.54-4.78,7.13-6.63,11-4.02,8.41-2.56,20.29-5.18,29.24s-6.64,17.79-17.68,20.47c-2.28.55-4.21,2.2-6.54,2.4-4.54.4-9.01-2.21-11.6-5.96-2.59-3.75-3.46-8.48-3.25-13.03.21-4.55,1.44-8.99,2.75-13.35,1.69-5.62,3.58-11.28,6.9-16.12,4.41-6.45,11.02-11,16.74-16.31,3.98-3.7,7.58-7.81,10.71-12.26,4.73-6.71,9.81-13.52,17.78-18.06,6.68-3.8,14.53.98,10.79,9Z"/>
      <path class="cls-20" d="M127.41,212.41c-2.77-4.01-2.12-9.69-2.53-14.55-.36-4.24-4.32-30.05-4.69-34.29-6.9,6.61-14.43,32.32-20.87,39.74-3.77,4.33-.8,14.33-.85,20.97-.19,28.4-4.22,60.89-20.14,84.41,10.59,10.16,40.07,19.6,41.23,16.66,6.52-16.58,8.49-35.63,13.03-52.86,2.76-10.47,5.17-21.35,3.56-32.06-.43-2.88-1.15-5.73-1.17-8.64-.04-4.44,1.55-8.72,3.11-12.89.33-.88.78-1.79,1.29-2.51-4.19,2.17-9.49-.38-11.98-3.98Z"/>
      <path class="cls-19" d="M120.19,228.82c.67-2.56,4.78-5.56,5.34-8.15.84-3.89.26-6.48-1.03-10.24-2.55-7.39-2.61-15.84-1.09-23.51.52,4.61,1.65,9.51,2.17,14.12.39,3.47.11,6.98,1.93,9.96,2,3.27,4.71,4.65,8.34,4.47-1.39,1.94-4.7,2.93-6.37,4.74-2.41,2.62-7.51,5.53-9.28,8.61Z"/>
      <path class="cls-19" d="M174.7,184.96c1.13,2.43-.25,3.46-.86,4.48-1.47,2.44-2.77,5-4.15,7.49-1.62,2.93-3.24,5.85-4.86,8.78-1.54,2.79-3.19,5.69-5.88,7.4-2.69,1.71-6.73,1.74-8.65-.8,1.11,1.97,2.59,3.72,4.33,5.16-4.01,6.62-7.5,15.03-8.1,22.75-.33,4.22-2.48,24.71-12.07,29.17-4.36,2.02-10.16,5.2-14.93,4.64,2.99,1.9,4.89,5.2,5.79,8.63.9,3.43.89,7.02.79,10.57-.15,5.2,2.48,11.94,1.91,17.11,3-10.16,5.31-20.26,7.06-30.71,6.17-1.11,8.2-7.78,11.01-13.38s4.06-11.79,4.53-18.23c-.01.04-.03.11-.05.21.75-7.16.85-14.86,3.69-20.82,1.85-3.87,4.22-7.46,6.63-11,3.14-4.62,6.36-9.2,9.65-13.72,2.09-2.87,3.63-6.04,5.13-9.26,1.35-2.9,1.45-6.49-.98-8.46Z"/>
      <path class="cls-9" d="M80.93,319.42c10.11,6.61,19.9,13.58,29.27,21.21,2.37,1.93,4.71,3.88,7.05,5.85,2.29,1.93,4.42,4.1,6.77,5.96,4.41-21.06,5.81-42.89,11.34-63.7-5.97-4.74-13.55-7.41-21.15-8.31-7.6-.9-15.23-.13-22.58,1.38-.8.16-1.6.34-2.31.7-.99.5-1.73,1.32-2.44,2.13-4.94,5.62-13.71,18.35-19.94,27.63,4.99,1.64,9.58,4.26,13.98,7.14Z"/>
      <path class="cls-1" d="M104.88,333.16c-.45.73-.93,1.44-1.43,2.14,2.27,1.74,4.52,3.52,6.75,5.33,2.37,1.93,4.71,3.88,7.05,5.85,2.29,1.93,4.42,4.1,6.77,5.96,4.41-21.06,5.81-42.89,11.34-63.7-5.97-4.74-13.55-7.41-21.15-8.31-1-.12-2-.21-3-.27,0,0,0,0,0,0,.46,1.6.65,3.01.6,4.65-.13,3.79-.99,7.53-2.53,10.97-.17.39-.37.79-.72,1.05-.63.47-1.56.36-2.39.23-7.22-1.1-14.54-1.31-21.71-.61,8.76.93,17.44,3,25.73,6.12.15,10.55.15,21.65-5.3,30.59Z"/>
      <path class="cls-12" d="M122.25,350.96c.58.51,1.17,1,1.77,1.48,4.41-21.06,5.81-42.89,11.34-63.7-.76-.6-1.54-1.17-2.35-1.71-.49.94-.84,1.9-1.02,2.63-1.24,4.74-1.73,9.4-3.76,13.94-1.58-1.61-3.97-2.19-6.22-2.62-8-1.55-16.11-2.4-24.19-2.54,9.7,2.14,19.41,4.27,29.11,6.41,1.11,15.61-1.23,30.97-4.67,46.11Z"/>
      <path class="cls-3" d="M168.03,185.24c-1.53,1-2.89,2.31-3.72,3.94-.83,1.63-1.09,3.59-.48,5.31.61,1.72,2.17,3.13,3.99,3.34,1.68.19,3.12-1,4.28-2.24,1.15-1.24,2.09-2.46,2.56-4.09.3-1.04.53-2.15.26-3.2-.39-1.48-1.65-2.46-2.9-3.22-1.52-.92-2.44-.86-3.99.16Z"/>
      <path class="cls-16" d="M88.37,288.74c-.19.82-.17,1.74.34,2.47.7,1.01,2.18,1.36,3.38,1.06,1.2-.3,2.14-1.11,2.93-1.99.56-.63,1.08-1.35,1.22-2.18.13-.81-.12-1.68-.67-2.35-2.52-3-6.58.43-7.18,2.98Z"/>
    </g>
  </g>
</svg>