<?xml version="1.0" encoding="UTF-8"?>
<svg id="Layer_2" data-name="Layer 2" xmlns="http://www.w3.org/2000/svg" viewBox="0 0 3297.89 3228.54">
  <defs>
    <style>
      .cls-1 {
        fill: #ffc19e;
      }

      .cls-2 {
        fill: #434343;
      }

      .cls-3 {
        fill: #fcaa81;
      }

      .cls-4 {
        fill: #51a11e;
      }

      .cls-5 {
        fill: #fff;
      }

      .cls-6 {
        fill: #0065c1;
      }

      .cls-7 {
        fill: #44973b;
      }

      .cls-8 {
        fill: #6bc82f;
      }

      .cls-9 {
        fill: #038308;
      }

      .cls-10 {
        fill: #231f20;
      }

      .cls-11 {
        fill: #094800;
      }

      .cls-12 {
        fill: #7d98cf;
      }

      .cls-13 {
        fill: #0587dd;
      }

      .cls-14 {
        fill: #333;
      }

      .cls-15 {
        fill: #d7f0f7;
      }

      .cls-16 {
        fill: #307a23;
      }

      .cls-17 {
        fill: #606fb0;
      }

      .cls-18 {
        fill: #7d3328;
      }
    </style>
  </defs>
  <g id="object">
    <g>
      <path class="cls-15" d="M3297.89,2419.9c0,255.65-27.02,502.02-77.06,733.33-.47,2.13-.92,4.25-1.4,6.36-5.06,23.16-10.34,46.15-15.86,68.95H94.32c-5.53-22.81-10.8-45.8-15.86-68.95-.48-2.11-.93-4.23-1.4-6.36C27.02,2921.92,0,2675.54,0,2419.9c0-469.68,91.18-908.11,248.97-1279.25,59.05-138.87,127.42-268.32,203.84-386.44C753.27,289.66,1178.05,0,1648.94,0c271.38,0,527.44,96.2,753.22,266.65,162.61,122.74,309.5,283.98,435.08,475.54,285.26,435.02,460.64,1026.3,460.64,1677.71Z"/>
      <path class="cls-5" d="M1567.53,1586.8s-136.33-24.34-211.8,131.46h1526.42s-36.52-87.64-209.36-80.34c0,0-48.69-148.5-226.41-148.5,0,0-9.74-55.99-48.69-68.17,0,0-2.43-194.76-223.97-194.76s-284.83,87.64-297.01,143.63c0,0-41.39-53.56-77.9,4.87,0,0-238.58-58.43-231.28,211.8Z"/>
      <path class="cls-5" d="M663.12,1946.79s-68.76-12.28-106.83,66.31h769.89s-18.42-44.2-105.6-40.52c0,0-24.56-74.9-114.19-74.9,0,0-4.91-28.24-24.56-34.38,0,0-1.23-98.23-112.97-98.23s-143.66,44.2-149.8,72.45c0,0-20.87-27.01-39.29,2.46,0,0-120.33-29.47-116.65,106.83Z"/>
      <g>
        <path class="cls-9" d="M422.67,2685.44s-12.96-57.41-94.68-33.37c-90.8,26.71-129.89-97.6-152.05-21.22-29.15,100.48,210.79,209.44,246.73,54.59Z"/>
        <path class="cls-9" d="M310.36,2496.96s3.07-47.28-65.5-47.34c-76.19-.07-78.05-104.96-112.57-51.04-45.41,70.94,115.02,209.75,178.06,98.38Z"/>
        <path class="cls-9" d="M312.69,2495.96s-29.57-37.01,26.62-76.31c62.44-43.66,3.95-130.74,63.11-106.27,77.83,32.19,25.7,237.83-89.73,182.57Z"/>
        <path class="cls-9" d="M247.99,2297.96s10.34-46.24-57.4-56.89c-75.27-11.84-60.89-115.76-103.33-67.82-55.82,63.07,81.22,225.01,160.72,124.71Z"/>
        <path class="cls-9" d="M250.44,2297.33s-23.5-41.14,38.1-71.27c68.44-33.48,24.1-128.56,78.77-95.24,71.92,43.83-11.36,238.95-116.87,166.51Z"/>
        <path class="cls-9" d="M239.7,2077.68s20.14-33.55-30.17-59.54c-55.91-28.88-17.59-106.59-63.33-80.06-60.18,34.9,5.08,197.51,93.5,139.6Z"/>
        <path class="cls-9" d="M241.79,2077.83s-7.71-38.36,48.42-45.95c62.36-8.42,52.36-94.49,86.54-54.14,44.96,53.08-71.12,184.33-134.96,100.09Z"/>
        <path class="cls-9" d="M276.75,1906.4s23.51-26.06-16.3-57.6c-44.23-35.05,2.89-96.85-41.94-81.38-58.98,20.35-29.57,174.72,58.24,138.99Z"/>
        <path class="cls-9" d="M278.56,1906.89s-.17-35.1,50.53-32.1c56.34,3.33,62.37-74.14,85.5-32.74,30.43,54.47-94.36,149.99-136.04,64.84Z"/>
        <path class="cls-9" d="M325.28,1781.91s23.48-20.76-8.68-52.75c-35.73-35.55,12.29-85.64-29.05-76.42-54.38,12.13-43.78,152.06,37.72,129.17Z"/>
        <path class="cls-9" d="M326.84,1782.53s3.37-31.16,48.06-23.41c49.66,8.61,62.79-59.52,79.15-20.46,21.53,51.38-98.79,123.61-127.21,43.87Z"/>
        <path class="cls-9" d="M385.52,1670.39s22.66-17.52-4.74-48.62c-30.44-34.56,16.36-77.35-21.89-71.43-50.31,7.79-49.07,136.02,26.62,120.06Z"/>
        <path class="cls-9" d="M386.9,1671.05s4.95-28.21,45.23-18.45c44.76,10.84,60.84-50.5,73.41-13.9,16.54,48.15-97.52,106.77-118.64,32.34Z"/>
        <path class="cls-9" d="M523.41,1588.84s-4.95,28.21-45.23,18.45c-44.76-10.84-60.84,50.5-73.41,13.9-16.54-48.15,97.52-106.77,118.64-32.34Z"/>
        <path class="cls-9" d="M412.85,2666.67s-41.38-41.85,22.9-97.74c71.42-62.1-12.24-162.01,64.04-139.53,100.35,29.57,62.89,290.42-86.94,237.27Z"/>
        <path class="cls-11" d="M533.83,2812.14l12.42-15.15c-1.4-1.15-140.95-117.13-228.25-313.31-80.33-180.52-131.58-468.22,80.47-813.69l-16.7-10.25c-95.6,155.75-147.14,313.27-153.18,468.2-4.85,124.1,19.33,246.72,71.84,364.43,89.29,200.17,231.97,318.59,233.4,319.76Z"/>
      </g>
      <g>
        <path class="cls-9" d="M2907.53,2817.3s15.8-56.69,96.22-28.62c89.36,31.19,134.58-91.02,152.92-13.64,24.12,101.8-220.94,198.71-249.14,42.26Z"/>
        <path class="cls-9" d="M3029.07,2634.63s-.72-47.37,67.77-44.03c76.1,3.72,83.17-100.95,114.96-45.38,41.83,73.11-125.31,203.77-182.74,89.4Z"/>
        <path class="cls-9" d="M3026.8,2633.52s31.38-35.5-22.8-77.53c-60.2-46.71,2.56-130.77-57.75-109.27-79.33,28.28-37.49,236.26,80.55,186.81Z"/>
        <path class="cls-9" d="M3101.26,2438.98s-8.03-46.69,60.15-53.97c75.76-8.09,66.57-112.59,106.57-62.6,52.62,65.76-92.31,220.69-166.72,116.57Z"/>
        <path class="cls-9" d="M3098.85,2438.23s25.51-39.92-34.51-73.08c-66.69-36.84-17.68-129.6-73.94-99.04-74.01,40.2-.53,239.22,108.45,172.12Z"/>
        <path class="cls-9" d="M3120.49,2219.39s-18.45-34.51,33.1-57.96c57.28-26.06,22.87-105.58,67.23-76.81,58.37,37.85-14.89,197.01-100.33,134.78Z"/>
        <path class="cls-9" d="M3118.4,2219.43s9.6-37.93-46.07-48.3c-61.87-11.51-47.6-96.97-83.74-58.38-47.54,50.78,61.87,187.64,129.81,106.67Z"/>
        <path class="cls-9" d="M3092,2046.48s-22.19-27.19,19.14-56.72c45.92-32.81,1.93-96.87,45.94-79.19,57.9,23.25,20.84,175.97-65.08,135.92Z"/>
        <path class="cls-9" d="M3090.17,2046.87s1.92-35.04-48.88-34.57c-56.44.53-58.61-77.15-83.77-36.95-33.1,52.89,86.79,154.5,132.64,71.52Z"/>
        <path class="cls-9" d="M3049.72,1919.73s-22.42-21.9,11.29-52.25c37.45-33.72-8.01-86.15,32.81-74.88,53.7,14.82,36.16,154.05-44.1,127.13Z"/>
        <path class="cls-9" d="M3048.13,1920.26s-1.82-31.29-46.84-25.77c-50.02,6.13-59.75-62.57-78.04-24.37-24.06,50.25,92.52,128.37,124.87,50.14Z"/>
        <path class="cls-9" d="M2995.1,1805.35s-21.76-18.62,7.15-48.33c32.12-33.01-12.49-78.07,25.41-70.26,49.86,10.28,42.25,138.29-32.56,118.58Z"/>
        <path class="cls-9" d="M2993.69,1805.94s-3.54-28.42-44.26-20.67c-45.25,8.61-58.25-53.46-72.63-17.53-18.91,47.27,92.09,111.48,116.89,38.2Z"/>
        <path class="cls-9" d="M2861.43,1717.04s3.54,28.42,44.26,20.67c45.25-8.61,58.25,53.46,72.63,17.53,18.91-47.27-92.1-111.48-116.89-38.2Z"/>
        <path class="cls-9" d="M2918.27,2799.04s43.41-39.74-18.01-98.76c-68.24-65.58,20.28-161.2-57.02-142.54-101.7,24.55-77.25,286.93,75.03,241.3Z"/>
        <path class="cls-11" d="M2790.21,2938.32l-11.65-15.75c1.45-1.08,146.6-109.97,243.54-301.57,89.21-176.3,154.7-461.1-39.92-816.69l17.18-9.41c87.74,160.31,131.38,320.2,129.72,475.24-1.33,124.19-31.57,245.45-89.87,360.41-99.13,195.48-247.52,306.66-249.01,307.76Z"/>
      </g>
      <g>
        <path class="cls-11" d="M1959.98,3094.86c-8.59,21.51-18.56,43.2-30.06,64.72-12.42,23.31-26.64,46.43-42.8,68.95h-193.17c-12.34-3.73-24.99-7.72-37.77-11.97-9.66-3.2-19.39-6.54-29.15-10.04-27.27-9.77-54.69-20.71-80.75-32.78-9.85-4.56-19.51-9.27-28.9-14.17-24.3-12.64-46.81-26.35-66.15-41.17-11.25-8.62-21.44-17.6-30.3-26.95-18.01-19.04-30.5-39.6-35.19-61.68-9.17-43.25-.8-63.54,16.96-70.83,10.07-4.13,23.14-4.11,37.76-1.71,25.09,4.06,54.69,15.07,81.32,23.82,4.1,1.35,8.11,2.65,12.04,3.85,2.1.65,4.11,1.2,6.03,1.66,37.39,9.26,41.17-13.4,11.32-52.17-3.33-4.33-7.09-8.87-11.27-13.58-21.14-23.89-53.09-52.37-95.79-82.6-5.51-3.9-10.65-7.74-15.47-11.54-109.35-86.26-45.85-146.78-2.25-133.13,16.88,5.28,36.19,13.18,51.76,17.33,14.07,3.75,25.09,4.41,28.5-2.68,2.01-4.16,1.4-11.02-2.78-21.51-2.05-5.18-4.98-11.24-8.87-18.3-1-1.81-2.05-3.65-3.15-5.48,0,0,.02,0,0-.02-.5-.85-1-1.7-1.53-2.56-43.47-71.77-146.74-165.22-89.81-203.84,22.74-15.43,50.02-5.71,72.6,6.58,14.42,7.81,26.92,16.66,35.12,20.68,11.4,5.59,14.48,1.8,2.75-27.18v-.02c-.95-2.35-2-4.86-3.15-7.56-37.07-86.81-33.96-164.41,3.98-195.43,4.51-3.68,9.51-6.71,14.98-9.02,13.02-5.48,25.94-2.15,37.67,6.93,34.81,26.92,59.11,104.41,43.88,152.67-20.36,64.54,3.41,64.54,31.93,34.64,19.73-20.66,55-35.16,76.26-23.52,9.51,5.18,16.21,15.58,17.48,32.99,1.17,16.08-3.13,36.34-9.79,58.18-11.04,36.31-28.53,77.04-38.15,110.37-4.89,16.95-7.74,32-6.68,43.56,2.6,28.05,18.01,26.07,33.66,9.69,7.86-8.24,15.78-20.13,22.14-33.68,2.65-5.64,5.03-11.57,7.02-17.65,16.28-49.58,86.91-78.81,104.59-29.23,17.68,49.57-9.31,219.14-7.32,272.93,2,53.79,38.65-26.37,55.62-63.74,14.4-31.73,61.16-54.65,89.49-23.39,5.03,5.54,9.49,12.8,13.07,22.01,16.41,42.17,14.75,166.57-37.67,297.56Z"/>
        <path class="cls-11" d="M1926.35,2872.03l-3.1,4.01-9.99,12.98c-4.33,5.71-8.87,11.19-12.8,17.16-8.09,11.77-16.48,23.31-23.72,35.59-15.37,23.99-28.47,49.31-40.54,74.93l-8.67,19.39-7.92,19.71c-1.35,3.25-2.56,6.58-3.71,9.92l-3.58,9.97c-2.46,6.61-4.48,13.38-6.64,20.08-2.35,7.36-4.48,14.77-6.46,22.17.68,1.45,1.37,2.9,2.05,4.33,4.68,9.92,9.49,19.79,14.25,29.66.73,1.51,1.46,3.01,2.2,4.53.3.6.62,1.25.92,1.86.2.42.4.83.6,1.25.07.15.15.3.23.45,3.86,8.09,8.02,16.01,12,24.02,2.48,4.98,4.96,9.94,7.52,14.88,1.81,3.6,3.66,7.12,5.54,10.7,3.3,6.31,6.59,12.62,9.94,18.89h-39.37c-.55-1.17-1.1-2.35-1.65-3.51-4.23-8.76-8.26-17.61-12.25-26.45-3.96-8.84-8.12-17.63-11.92-26.54-.42-.95-.83-1.9-1.25-2.83-1.08-2.56-2.2-5.09-3.31-7.61-.87-.53-1.75-1.05-2.63-1.56-.25-.15-.5-.3-.75-.45-4.46-2.63-8.99-5.18-13.57-7.64-6.29-3.4-12.68-6.64-19.19-9.74-16.5-7.74-33.31-14.98-50.59-21.16-.9-.32-1.78-.65-2.68-.97-3.41-1.25-6.83-2.51-10.27-3.71l-13.08-4.28-26.52-8.61c-11.92-3.9-23.74-8.04-35.46-12.47-1.33-.5-2.66-1-4-1.5l-1.8-.7c-21.24-8.17-42.12-17.21-62.54-27.15-3.9-1.86-7.77-3.78-11.64-5.71-7.49-3.76-14.92-7.66-22.26-11.69-3.31-1.8-6.59-3.63-9.87-5.48-1.86-1.07-3.73-2.13-5.58-3.21-16.08-9.36-31.88-19.21-46.79-30.28,15.4,10.17,31.58,19.06,47.99,27.43.08.05.18.08.27.13,4.88,2.48,9.79,4.91,14.73,7.27,7.31,3.5,14.68,6.88,22.11,10.1,4.49,1.98,9.02,3.91,13.57,5.79,20.53,8.61,41.4,16.3,62.53,23.12,6.53,2.13,13.08,4.16,19.66,6.11,6.73,2,13.47,3.91,20.23,5.74.8.22,1.58.43,2.38.65l2.4.63,24.49,6.46,13.58,3.61c3.51,1.02,7.02,2.1,10.54,3.16.37.12.73.22,1.1.33.62.18,1.22.37,1.83.55,4.93,1.46,9.84,3.01,14.72,4.63,1.02.33,2.03.68,3.05,1.03,2.85.95,5.68,1.93,8.51,2.95,1,.35,2.01.72,3.01,1.08,3.21,1.15,6.41,2.35,9.59,3.56,1.02.38,2.01.77,3.03,1.17,3.78,1.45,7.56,2.95,11.32,4.46,2.76,1.13,5.53,2.31,8.27,3.51,2.55,1.1,5.09,2.23,7.62,3.38-.37-.85-.72-1.7-1.07-2.55h-.02c-1.55-3.66-3.08-7.36-4.58-11.07l-2.45-5.89-.52-1.22-1.05-2.51-7.14-17.2c-3.68-8.99-7.17-18.01-10.77-27l-10.67-27.02c-3.55-9.01-6.84-18.11-10.27-27.15-.07-.2-.15-.38-.22-.58-1.95-5.24-3.91-10.45-5.88-15.68-4.78-12.7-9.56-25.39-13.95-38.22-1.23-3.55-2.48-7.08-3.75-10.62-2.88-8.17-5.79-16.33-8.66-24.52-2.31-6.54-4.56-13.07-6.81-19.63l-9.24-27.98c-3.05-2.68-6.16-5.31-9.37-7.82-8.72-7.13-17.93-13.77-27.27-20.28-14.33-9.85-29.23-18.96-44.48-27.53-1.27-.73-2.55-1.45-3.83-2.15-1.73-.97-3.48-1.93-5.23-2.88-1.63-.9-3.28-1.78-4.93-2.66-.1-.05-.22-.12-.32-.17l-15.32-7.94c-5.13-2.6-10.37-4.99-15.56-7.51-10.34-5.11-21.01-9.47-31.56-14.13-5.28-2.4-10.69-4.38-16.05-6.54l-16.16-6.36-26.57-9.49-6.14-2.2,6.38,1.66,27.3,7.09,16.71,4.93c5.56,1.7,11.19,3.18,16.68,5.13,11,3.7,22.14,7.14,33.01,11.39,5.46,2.06,10.94,4.01,16.38,6.16l10.45,4.31,5.74,2.36c1.95.83,3.91,1.66,5.86,2.53.7.3,1.38.6,2.08.9.83.37,1.66.73,2.5,1.1,17.93,7.94,35.62,16.56,52.85,26.29,5.14,2.96,10.3,5.94,15.38,9.04l-2.01-6.09-4.24-13.87-8.52-27.73c-5.64-18.46-11.44-36.89-16.53-55.55l-15.71-55.78c-1.37-4.61-2.58-9.31-3.75-13.98l-3.61-14.05-3.4-13.23-1.47-5.63.02-.03c-.88-1.1-1.8-2.16-2.71-3.23-3.7-4.4-7.62-8.66-11.67-12.85-2.03-2.1-4.08-4.16-6.14-6.23-.98-.97-1.96-1.91-2.96-2.86-11.65-11.2-24.25-21.61-37.31-31.46l-.83-.62-9.96-7.22c-3.61-2.58-7.39-4.99-11.07-7.49-2.76-1.91-5.58-3.75-8.42-5.53-3.81-2.4-7.69-4.73-11.55-7.07-.92-.55-1.81-1.1-2.73-1.66-3.78-2.41-7.74-4.48-11.64-6.68l-1.07-.6-10.7-5.94c-7.99-4.13-16.05-8.07-24.09-12.14,8.44,3.1,16.93,6.14,25.37,9.36l8.69,3.6,3.81,1.58c4.18,1.75,8.41,3.36,12.47,5.34.2.08.38.18.58.27,4.15,1.95,8.34,3.85,12.5,5.79,3.86,1.81,7.69,3.68,11.45,5.69,3.48,1.81,7.01,3.56,10.49,5.43.53.28,1.07.57,1.6.87l11.89,6.74c6.81,4.01,13.57,8.17,20.21,12.55,8.27,5.39,16.38,11.1,24.25,17.2-6.92-28.13-13.13-56.42-19.73-84.62-4.53-18.74-8.01-37.76-11.92-56.65l-11.45-56.7,13.72,56.2c4.68,18.69,8.87,37.52,14.18,56.05,7.36,26.75,14.4,53.59,22.09,80.27.13-.32.22-.63.35-.95,6.28-15.27,14.17-29.6,22.76-43.27,2.2-3.4,4.3-6.84,6.58-10.19l7.01-9.82c1.17-1.61,2.3-3.28,3.5-4.89l3.73-4.71,7.42-9.42c5.11-6.16,10.45-12.1,15.63-18.13l16.46-17.26-14.05,19.19c-4.36,6.63-8.84,13.13-13.03,19.78l-6.04,10.17-3.03,5.06c-.95,1.7-1.86,3.45-2.78,5.18l-5.53,10.35c-1.75,3.5-3.35,7.06-5.04,10.57-6.49,14.17-12.12,28.63-16.05,43.38-.17.72-.35,1.45-.52,2.16-.73,2.96-1.45,5.91-2.1,8.89-.65,3.71-1.51,7.37-1.91,11.07-.58,3.68-.88,7.34-1.13,10.94-.03.85-.07,1.7-.12,2.55l5.09,17.01.3,1.02,4.14,13.83c1.37,4.61,2.76,9.21,4.29,13.78l17.88,54.92c5.83,18.36,12.32,36.47,18.68,54.64l9.57,27.23,4.76,13.62,5.06,13.5,5.81,15.52,8.91,23.71,1.22,3.23c.58-2.41,1.22-4.83,1.83-7.22,5.91-22.52,12.57-44.8,20.39-66.65,2.9-8.07,5.86-16.11,8.97-24.1.95-2.5,1.93-4.99,2.91-7.47,4.39-11.07,9.04-22.04,14.02-32.84,4.61-10.6,9.84-20.91,14.93-31.23,2.48-5.23,5.29-10.27,8.02-15.33l8.22-15.18-6.83,15.85c-2.25,5.29-4.61,10.52-6.61,15.93-4.15,10.69-8.39,21.34-12.02,32.26-6.69,18.83-12.42,37.99-17.6,57.23-.75,2.83-1.5,5.66-2.23,8.49-2.26,8.72-4.34,17.5-6.26,26.29-2.96,13.5-5.54,27.07-7.82,40.63-1.91,11.22-3.45,22.46-4.79,33.73-.25,2.25-.5,4.51-.75,6.79,2.36,5.93,4.73,11.85,7.09,17.8,1.37,3.41,2.73,6.83,4.08,10.25,1.83,4.68,3.7,9.36,5.61,14,5.38,13.13,11,26.17,16.46,39.25,3.75,8.82,7.37,17.73,11.24,26.54l11.67,26.34c3.93,8.77,7.71,17.58,11.72,26.32l5.48,11.82c.33-.83.65-1.63.98-2.46,2.71-6.74,5.29-13.52,8.31-20.11l4.38-9.95c1.43-3.33,2.91-6.63,4.56-9.85l9.47-19.51,10.25-19.08c14.13-25.17,29.22-49.77,46.44-72.81,8.16-11.82,17.45-22.82,26.39-34.03,4.34-5.68,9.32-10.87,14.05-16.26l11.22-12.57,3.06-3.45Z"/>
      </g>
      <g>
        <path class="cls-11" d="M1259.21,3220.85c-.25,2.53-.55,5.09-.87,7.69h-457.41c-16.56-19.94-41.23-43.55-74.03-68.95-8.61-6.68-17.78-13.47-27.52-20.36-13.22-9.36-24.4-18.46-33.79-27.23-2.93-2.73-5.69-5.44-8.27-8.11-59.6-61.61-29.65-105.66,4.86-110.77,5.76-.85,11.64-.62,17.26.82.75.17,1.5.38,2.23.62,45.53,14.25,108.7,47.51,68.6-25.15-15.13-27.43-40.74-58.63-63.54-89.01-3.55-4.73-7.02-9.42-10.39-14.08-32.33-44.81-53.87-86.2-20.54-108.8,10.15-6.89,21.21-8.76,32.35-7.64,2.36.25,4.74.62,7.11,1.12,51.31,10.64,100.68,75.89,67.85-.98-41.47-97.12-32.66-182.7,18.96-204.46,4.48-1.88,8.94-2.73,13.35-2.65,46.46.77,86.8,103.31,68.2,162.26-20.36,64.52,3.41,64.52,31.95,34.63,1.75-1.83,3.61-3.61,5.59-5.34,30.21-26.37,84.3-38.09,88.15,14.82,1.1,15.18-2.68,34.08-8.71,54.54-16.31,55.52-49.16,122.45-45.91,157.58,4.43,48.06,46.53,7.97,62.81-41.62,16.3-49.59,86.93-78.82,104.59-29.25,6.04,16.95,6.88,47.91,5.43,83.48-.92,22.37-2.73,46.58-4.73,70.27-.07.92-.15,1.83-.23,2.75-3.83,45.28-8.16,88.33-7.84,112.6,0,1.33.02,2.61.07,3.83.08,2.16.22,4.11.4,5.86,1.63,15.05,7.19,14.77,14.38,6.59,3.43-3.9,7.24-9.59,11.15-16.28,10.59-18.01,22.09-43.22,29.66-59.9,5.29-11.62,14.9-22.07,26.37-29.1,3.2-1.98,6.56-3.68,10-5.06,7.11-2.85,14.6-4.36,21.97-4.09,10.6.38,20.99,4.41,29.76,13.38,3.36,3.41,6.48,7.56,9.27,12.5,1.88,3.3,3.61,6.94,5.18,10.97,1.2,3.1,2.31,6.63,3.3,10.59.72,2.8,1.37,5.79,1.96,9.01,2.11,11.52,3.46,25.59,3.83,41.7.42,18.08-.42,38.72-2.83,61.26Z"/>
        <path class="cls-11" d="M1025.87,2998.78l8.22-15.18-6.81,15.85c-2.26,5.29-4.63,10.52-6.61,15.93-4.16,10.7-8.41,21.36-12.04,32.26-4.69,13.2-8.91,26.55-12.77,39.99-2.48,8.56-4.81,17.15-7.04,25.74-3.98,15.32-7.39,30.75-10.37,46.23-1.33,6.89-2.56,13.78-3.73,20.69-1.91,11.22-3.45,22.46-4.79,33.73-.23,2.25-.5,4.53-.75,6.79l3.1,7.74h-23.61c-.78-2.2-1.56-4.39-2.33-6.59-2.3-6.53-4.56-13.07-6.81-19.63l-9.24-27.98c-3.05-2.68-6.14-5.31-9.36-7.82-2.9-2.35-5.83-4.66-8.82-6.92-6.01-4.58-12.2-8.99-18.46-13.35-18.78-12.92-38.54-24.55-58.78-35.37l-15.32-7.96c-5.13-2.6-10.35-4.99-15.56-7.51-3.73-1.85-7.51-3.6-11.3-5.29-6.73-3.01-13.52-5.86-20.26-8.84-5.28-2.4-10.69-4.38-16.05-6.53l-16.16-6.38-32.69-11.67,33.68,8.74,16.71,4.93c5.54,1.7,11.17,3.18,16.66,5.13,6.41,2.16,12.88,4.23,19.31,6.43,4.59,1.57,9.17,3.2,13.7,4.96,5.46,2.06,10.94,4.01,16.38,6.18l16.2,6.66c21.52,9.17,42.73,19.23,63.29,30.81,5.14,2.96,10.3,5.94,15.38,9.04l-2.01-6.08-4.24-13.88-8.52-27.73c-5.64-18.46-11.44-36.89-16.53-55.55l-15.71-55.77c-1.37-4.63-2.58-9.32-3.75-13.98l-3.61-14.05-3.4-13.23-1.46-5.64.02-.02c-.88-1.12-1.78-2.16-2.71-3.25-5.53-6.59-11.6-12.89-17.81-19.08-8.72-8.57-18.01-16.71-27.65-24.47-4.15-3.36-8.36-6.64-12.62-9.85l-10.79-7.84c-3.61-2.58-7.37-4.98-11.07-7.49-7.32-5.09-15.05-9.56-22.69-14.27-3.8-2.41-7.76-4.48-11.65-6.68l-11.77-6.54c-7.97-4.13-16.05-8.07-24.09-12.14,8.44,3.11,16.93,6.14,25.37,9.36l12.5,5.18c4.18,1.75,8.42,3.38,12.49,5.34,8.17,3.85,16.51,7.46,24.52,11.77,4.01,2.08,8.12,4.08,12.09,6.28l11.89,6.74c2.15,1.27,4.28,2.55,6.39,3.83,13.07,7.94,25.85,16.46,38.07,25.92-6.91-28.12-13.13-56.42-19.71-84.62-4.54-18.74-8.02-37.76-11.94-56.65l-7.54-37.36s-.02-.05-.02-.08l-3.9-19.26,3.7,15.12s.02.05.02.07l10,41.02c4.68,18.69,8.87,37.52,14.18,56.07,7.36,26.74,14.4,53.57,22.09,80.25.13-.32.23-.63.37-.95,6.28-15.27,14.15-29.6,22.74-43.27,2.2-3.4,4.29-6.84,6.58-10.17l7.01-9.84c1.17-1.61,2.3-3.28,3.5-4.89l3.73-4.71,7.44-9.41c5.09-6.18,10.44-12.12,15.61-18.13l13.48-14.15,2.98-3.13-2.55,3.48-11.5,15.71c-4.36,6.63-8.82,13.13-13.03,19.78l-6.04,10.17-3.03,5.06c-.95,1.7-1.86,3.45-2.78,5.18l-5.53,10.37c-1.75,3.48-3.33,7.04-5.03,10.55-6.51,14.17-12.14,28.63-16.05,43.38-.88,3.7-1.83,7.37-2.63,11.05-.63,3.71-1.52,7.39-1.91,11.07-.58,3.7-.88,7.34-1.13,10.94-.03.87-.07,1.71-.12,2.55l5.09,17.03.3,1,4.16,13.83c1.35,4.63,2.76,9.21,4.28,13.78l17.9,54.92c5.81,18.36,12.32,36.49,18.66,54.63l9.57,27.23,4.76,13.62,5.06,13.5,5.83,15.52,1.08,2.88,7.81,20.83,1.22,3.23c.6-2.4,1.22-4.83,1.83-7.22,1.48-5.63,3-11.24,4.58-16.83,4.73-16.78,9.94-33.41,15.81-49.81,4.08-11.39,8.31-22.71,12.8-33.89,4.13-10.29,8.47-20.48,13.1-30.53,4.61-10.62,9.84-20.91,14.95-31.25,2.46-5.23,5.29-10.27,8.01-15.33Z"/>
        <path class="cls-11" d="M1181.65,3173.04l-13.08,16.98c-1.58,2.1-3.2,4.15-4.79,6.21-2.78,3.58-5.51,7.17-8.01,10.97-4.89,7.12-9.9,14.17-14.7,21.34h-6.24c5.99-7.87,12.34-15.51,18.49-23.24,2.6-3.38,5.41-6.59,8.26-9.77,1.93-2.16,3.88-4.31,5.79-6.49l14.28-16Z"/>
      </g>
      <g>
        <path class="cls-9" d="M1730.66,2961.85c-1.96,15.83-4.41,31.9-7.39,48.14-2.8,15.3-6.04,30.76-9.81,46.31l-.02.03c-.32,1.4-.67,2.8-1.02,4.2,0,.03-.02.07-.03.12-2.26,9.16-4.69,18.36-7.31,27.58-1.58,5.51-3.21,11.04-4.91,16.58-.08.23-.15.47-.22.72-1.5,4.84-3.05,9.7-4.66,14.55-3.5,10.62-7.24,21.24-11.25,31.86-.97,2.55-1.95,5.09-2.95,7.64-.05.15-.1.3-.17.45-7.39,18.91-15.61,37.79-24.77,56.53-1.95,4-3.93,7.99-5.96,11.97h-349.97c-13.73-2.35-27.43-4.89-41.03-7.69-32.93-6.76-65.19-14.87-95.44-24.62-.73-.23-1.46-.47-2.2-.7-18.2-5.94-35.62-12.47-52.01-19.66-4.88-2.13-9.69-4.33-14.38-6.59-6.46-3.11-12.72-6.33-18.78-9.69-35.59-19.63-63.84-43.35-80.54-71.96-2.23-3.83-4.26-7.74-6.06-11.74-.27-.6-.53-1.2-.8-1.8-49.04-113.32,34.98-110.19,118.51-100.11,18.94,2.3,37.87,4.93,55.22,6.66,93.79,9.29,37.21-78.22-149.14-160.69-12.04-5.33-23.01-10.72-32.99-16.16-17-9.26-31.13-18.63-42.75-27.95-.15-.12-.3-.23-.43-.35-17.35-13.98-29.03-27.85-36.26-41.05-28.93-52.85,13.88-95.02,53.77-90.84,60.49,6.33,147.86,31.95,79.39-48.76-68.47-80.7-235.3-175.96-171.58-240.98,63.72-65.04,208.59,74.45,132.24-36.47-76.34-110.92-86.95-220.12-27.93-260.34,59.03-40.2,151.39,93.09,142.23,178.89-9.16,85.8,20.56,79.79,48.66,35.22,28.1-44.56,100.2-81.24,119.56-11.82,19.34,69.43-32.39,219.96-14.72,278.9,17.66,58.95,60.16-1.8,68-67.89,1.2-10.15,4.13-20.01,8.36-29.25v-.02c7.42-16.26,18.86-30.53,31.93-40.85,27.85-21.96,63.14-25.95,83.07,7.17,7.37,12.25,13.58,31.83,18.94,55.68h.02v.02c4.71,21.01,8.79,45.31,12.42,70.88.25,1.7.48,3.4.72,5.11v.02h.02c3.3,23.79,6.24,48.54,8.97,72.61v.03c.83,7.19,1.65,14.32,2.45,21.34-.02.02,0,.03,0,.03,2.11,18.89,4.15,37.02,6.18,53.57.92,7.52,1.85,14.73,2.78,21.51v.02c2.33,17.06,4.71,31.51,7.26,42.13,16.06,66.74,41.63-42.72,53.42-93.71.37-1.58.78-3.18,1.28-4.74,3.31-10.94,9.26-21.52,17-30.61,1.4-1.65,2.85-3.23,4.35-4.76,8.36-8.52,18.33-15.35,29.1-19.33,21.54-7.96,46.18-4.51,67.02,19.59,3.13,3.6,6.16,7.67,9.09,12.24,6.19,9.65,12.32,23.56,17.9,41.02,7.86,24.55,14.62,56.15,19.01,92.94.55,4.64,1.07,9.39,1.55,14.2.85,8.64,1.58,17.53,2.15,26.67v.02c3,47.43,2.03,101.13-5.08,157.98Z"/>
        <path class="cls-11" d="M1645.53,3228.54h-58.9c-4.61-6.11-9.17-12.25-13.73-18.39-7.49-9.89-14.77-19.93-21.99-29.96-1.53-2.15-3.08-4.29-4.63-6.43h-.02c-3.41-4.73-6.84-9.44-10.24-14.17-2.26-3.18-4.51-6.36-6.73-9.57-.75-1.08-1.5-2.16-2.26-3.23-2.01-2.91-4.03-5.81-6.06-8.67-16.35-5.83-33.06-10.87-50.07-15.1-6.54-1.6-13.1-3.15-19.69-4.59-16.13-3.6-32.43-6.71-48.88-9.09-5.78-.85-11.55-1.78-17.36-2.58l-11.84-1.38s-.02-.02-.02-.02l-5.59-.65-23.97-2.76-4.53-.52-4.56-.53-2.25-.25c-28.33-3.33-56.52-7.74-84.45-13.32-14.68-2.91-29.28-6.14-43.8-9.7-4.03-.98-8.02-2-12.04-3.03-5.08-1.28-10.14-2.61-15.18-4-17.86-4.84-35.57-10.24-53.09-16.16-7.06-2.4-14.1-4.86-21.11-7.44-15.25-5.59-30.31-11.67-45.01-18.58,14.83,5.99,29.96,11.15,45.25,15.83,7.31,2.25,14.67,4.38,22.02,6.43,20.48,5.71,41.15,10.64,61.94,14.87,2.31.47,4.61.93,6.93,1.38,4.23.85,8.47,1.66,12.72,2.45,10.67,2,21.37,3.83,32.1,5.46,24.37,3.73,48.88,6.58,73.41,8.59,3.08.27,6.18.5,9.26.73,1.73.13,3.48.25,5.21.37,2.41.17,4.84.33,7.26.48l9.81.57,25.6,1.5,17.9,1.08c5.93.5,11.89,1.13,17.85,1.66,5.38.48,10.75,1.03,16.13,1.66,18.44,2.13,36.82,5.08,55.15,8.49,7.22,1.4,14.43,2.91,21.61,4.59-3.53-5.16-7.04-10.34-10.52-15.58l-20.71-30.71c-6.86-10.29-13.5-20.69-20.26-31.03l-20.16-31.08c-6.73-10.35-13.13-20.89-19.69-31.33-1.22-1.96-2.43-3.91-3.65-5.86-6.29-10.09-12.62-20.13-18.84-30.21-5.54-8.92-11-17.9-16.31-26.97-2.45-4.13-4.89-8.21-7.36-12.34-5.69-9.49-11.39-18.94-17.03-28.47-4.53-7.57-8.99-15.18-13.45-22.81l-18.63-32.64c-3.63-2.1-7.31-4.13-11.05-6.06-.87-.47-1.73-.92-2.61-1.35-4.01-2.11-8.07-4.16-12.19-6.14-8.87-4.31-17.91-8.36-27.03-12.32-26.72-11.4-54.35-20.96-82.4-29.38l-21.14-6.08c-7.07-1.95-14.22-3.61-21.34-5.44-14.22-3.78-28.65-6.54-43.02-9.71-7.22-1.66-14.48-2.78-21.72-4.11l-21.81-3.88-43.81-6.33,44.3,2.41,22.12,1.95c7.37.72,14.78,1.15,22.14,2.2,14.68,1.85,29.48,3.35,44.13,5.91,7.34,1.2,14.68,2.23,22.02,3.56l21.94,4.24c29.2,6.03,58.26,13.23,86.88,22.54,7.17,2.4,14.37,4.83,21.49,7.41l-4.05-7.09-8.81-16.26-17.65-32.53c-11.72-21.64-23.62-43.22-34.68-65.26l-33.74-65.74c-2.86-5.44-5.56-10.99-8.21-16.53l-8.06-16.65-7.59-15.68-3.25-6.69v-.02c-1.38-1.17-2.78-2.26-4.2-3.36-8.59-6.86-17.76-13.18-27.08-19.34-18.71-12.2-38.59-22.96-59-32.74l-15.45-7.07c-5.19-2.31-10.5-4.38-15.73-6.58-10.45-4.51-21.24-8.16-31.98-12.1-5.34-2.06-10.82-3.63-16.25-5.39l-16.35-5.21c-11.02-3.13-22.11-6.04-33.18-9.09,11.32,1.75,22.71,3.4,34.06,5.29l16.95,3.31c5.66,1.13,11.37,2.08,16.95,3.53,11.19,2.73,22.52,5.14,33.63,8.51,5.53,1.6,11.17,3.05,16.7,4.81l16.56,5.41c21.36,7.41,42.53,15.81,63.08,25.95-15.75-33.39-30.68-67.19-46.01-100.78-10.4-22.27-19.54-45.15-29.22-67.79l-28.63-67.99,31.35,66.8c10.55,22.17,20.56,44.65,31.86,66.47,15.95,31.58,31.53,63.32,47.88,94.74.08-.43.13-.83.22-1.28,4-20.66,10.22-40.55,17.51-59.81,1.88-4.79,3.65-9.64,5.64-14.38l6.28-14.05c1.05-2.31,2.05-4.69,3.13-7.01l3.48-6.81,6.91-13.65c4.81-9.01,9.99-17.78,14.95-26.6l16.23-25.74-12.73,27.52c-3.76,9.39-7.71,18.66-11.29,28.02l-4.99,14.23-2.5,7.09c-.77,2.36-1.45,4.79-2.16,7.17l-4.31,14.35c-1.3,4.79-2.38,9.66-3.61,14.47-4.54,19.34-7.92,38.84-9.11,58.28-.17,4.84-.43,9.67-.48,14.47.13,4.81-.03,9.62.4,14.33.2,4.74.75,9.39,1.33,13.95.2,1.08.35,2.15.52,3.21l10.65,19.99.63,1.18,8.69,16.23c2.86,5.44,5.78,10.82,8.84,16.15l36.22,64.14c11.89,21.47,24.6,42.48,37.12,63.56l18.83,31.63,7.27,12.25,2.11,3.56,9.74,15.6.98,1.56,10.2,16.36,17.11,27.38,2.33,3.73c.13-3.16.3-6.34.47-9.49,1.7-29.63,4.39-59.16,8.66-88.46,4.26-29.27,9.34-58.38,16.11-87.05,3.08-14.43,7.01-28.63,10.79-42.83,1.76-7.14,4.03-14.17,6.14-21.19l6.44-21.04-4.51,21.54c-1.48,7.19-3.11,14.32-4.23,21.57-2.5,14.42-5.13,28.8-6.91,43.35-4.13,28.93-6.58,58.08-8.17,87.15-1.6,29.1-1.65,58.23-.72,87.21.45,14.5,1.37,28.93,2.53,43.35.27,2.88.52,5.79.78,8.69,7.01,10.74,14.05,21.47,21.04,32.23,2.01,3.13,4.05,6.26,6.08,9.36,11.42,17.38,23.31,34.43,34.94,51.64,2.33,3.4,4.64,6.81,6.98,10.24,4.56,6.71,9.12,13.45,13.78,20.09l21.24,29.96c6.03,8.46,11.95,17,18.03,25.44,1.07,1.52,2.16,3.01,3.25,4.51l1.13,1.55h.02l8.69,11.84c.22-1.12.4-2.21.62-3.33.18-1.02.37-2.01.55-3.03.25-1.38.5-2.75.75-4.13,1.22-6.73,2.45-13.43,4-20.06l2.95-13.55c.97-4.53,1.98-9.02,3.23-13.47l3.1-12,3.81-14.8,7.99-26.42c2.05-6.36,4.16-12.7,6.31-19.03,9.71-28.5,20.51-56.58,33.36-83.7,2.3-5.34,4.74-10.62,7.29-15.85,1.41-2.88,2.85-5.74,4.29-8.59,1.95-3.83,3.93-7.64,5.91-11.44.6-1.17,1.22-2.35,1.81-3.51,1.71-3.26,3.4-6.53,5.08-9.8,4.01-8.21,8.91-15.95,13.47-23.87l13.82-23.62-12.09,24.55c-3.95,8.22-8.26,16.21-11.67,24.69-1.93,4.53-3.9,9.06-5.84,13.57-.7,1.63-1.42,3.26-2.11,4.89-1.05,2.46-2.11,4.94-3.15,7.42-3.03,7.24-5.98,14.52-8.61,21.91-.32.88-.63,1.78-.93,2.66-11.97,30.76-21.29,62.44-29.37,94.27-.82,3.2-1.61,6.41-2.4,9.61l-5.94,26.44-2.98,16.13-1.95,10.5c-.85,4.39-1.55,8.87-2.13,13.35l-1.95,13.35c-1.42,8.77-2.21,17.65-3.2,26.47-.02.1-.02.22-.03.32-.2,1.8-.38,3.6-.57,5.39-.8,7.97-1.42,15.98-1.93,23.95,10.82,14.6,21.89,29,32.84,43.47.55.67,1.1,1.4,1.61,2.1,7.32,9.8,15.05,19.26,22.54,28.92,1.35,1.73,2.71,3.46,4.08,5.19,3,3.85,6.03,7.67,9.07,11.5,3.2,4.01,6.39,7.97,9.66,11.95,6.34,7.86,12.68,15.73,19.14,23.49,1.31,1.6,2.65,3.2,3.98,4.78,4.78,5.76,9.67,11.55,14.53,17.23Z"/>
      </g>
      <g>
        <path class="cls-9" d="M2612.7,3063.22c-3.81,19.41-13.03,37.84-26.45,55.28-11.05,14.37-24.94,28.07-40.97,41.08-31.63,25.69-71.63,48.71-114.63,68.95h-410.36c-13.27-22.84-24.94-45.95-35.14-68.95-9.67-21.76-18.01-43.42-25.17-64.72-28.57-84.93-38.29-163.97-36.72-218.82.02-.18.02-.38.03-.57.77-25.39,3.95-45.53,8.81-58.63,11.44-30.81,31.83-42.17,52.49-41.55,24.94.73,50.31,18.88,60.93,41.3,19.43,41.02,61.34,129,62.61,69.5,1.25-59.51-31.53-246.51-12.85-301.63,18.66-55.12,97.27-24.04,116.15,30.51,18.86,54.53,66.1,98.12,70.18,44.91,4.06-53.2-67.64-171.15-64.09-233.56,3.55-62.39,71.42-44.66,103.48-12.12,32.05,32.56,58.33,32.15,34.69-38.84-23.62-71,29.95-201.03,87.4-177.87,57.45,23.14,68.67,117.61,24.52,225.72-24.02,58.81-6.28,42.7,25.52,22.77,7.72-4.84,16.26-9.89,25.24-14.17,22.02-10.49,46.64-16.2,68.02-2.18,37.24,24.42,14.1,70.58-20.88,120.74-22.34,32.03-49.51,65.67-68.85,96.32-4.06,6.44-7.77,12.74-11.04,18.86-26.2,49.31-10.82,54.59,16.53,47.44,17.6-4.59,40.15-14.33,59.76-20.83,50.06-16.56,125.55,55.88-17.06,160.24-7.34,5.38-14.38,10.69-21.14,15.95-124.44,96.85-149.21,171.75-75.48,147.81,31.5-10.22,68.64-25.62,99.98-31.73,46-8.96,79.52,2.08,64.51,78.76Z"/>
        <path class="cls-11" d="M2546.18,3037.2c-16.3,12.5-33.59,23.66-51.21,34.29-17.61,10.59-35.69,20.51-54.1,29.7-36.77,18.61-74.94,34.56-114.01,48.04l-29.17,9.97-1.12.38-13.28,4.58c-4.78,1.75-9.51,3.61-14.23,5.39-18.99,7.14-37.47,15.45-55.57,24.29-13.63,6.74-26.85,14.1-39.62,22.06-1.2,2.8-2.38,5.63-3.53,8.47-.45,1.03-.9,2.1-1.33,3.15-.13.33-.28.68-.42,1.02h-39.69c2.51-5.19,5.03-10.39,7.41-15.65.32-.68.65-1.4.98-2.06,6.61-14.3,13.32-28.55,19.79-42.92-.8-2.78-1.61-5.56-2.45-8.32-1.61-5.38-3.31-10.74-5.11-16.08-2.5-7.37-4.83-14.83-7.67-22.07l-4.13-10.97c-1.33-3.68-2.75-7.34-4.28-10.9l-9.11-21.66-9.92-21.29c-13.8-28.12-28.72-55.88-46.15-82.14-8.21-13.45-17.68-26.05-26.83-38.92-4.44-6.54-9.57-12.52-14.45-18.76l-14.77-18.56,16.06,17.46c5.33,5.86,10.92,11.52,15.83,17.73,10.07,12.24,20.53,24.24,29.76,37.16,19.44,25.17,36.54,52.12,52.62,79.69l11.65,20.91,10.82,21.42c1.88,3.55,3.56,7.16,5.23,10.82l4.99,10.92c3.45,7.22,6.43,14.68,9.54,22.09.38.9.75,1.78,1.13,2.7l5.86-13.17c4.26-9.72,8.31-19.53,12.49-29.3l12.45-29.32c4.11-9.79,7.97-19.71,11.97-29.53,7.86-19.74,16.06-39.34,23.46-59.26,3.95-10.42,7.92-20.83,11.87-31.21-.32-2.5-.63-5.01-.95-7.49-1.7-12.44-3.58-24.84-5.88-37.21-4.58-24.72-10-49.39-16.76-73.75-6.73-24.34-14.18-48.58-23.04-72.31-4.21-12-9.09-23.71-13.87-35.46-2.3-5.94-4.99-11.69-7.59-17.5l-7.81-17.41,9.36,16.65c3.1,5.54,6.31,11.09,9.12,16.81,5.83,11.34,11.79,22.62,17.08,34.28,11.04,23.04,20.73,46.78,29.75,70.78,9.04,24.02,16.8,48.53,23.71,73.33.72,2.63,1.47,5.29,2.16,7.94l1.27-3.58,9.44-26.37,6.16-17.25,5.36-15.03,5.03-15.13,10.1-30.28c6.71-20.18,13.58-40.32,19.69-60.71l18.81-61.04c1.61-5.08,3.08-10.19,4.49-15.32l4.36-15.37.32-1.12,5.33-18.91c-.07-.93-.13-1.86-.17-2.81-.33-3.98-.75-8.01-1.45-12.07-.5-4.08-1.53-8.12-2.31-12.22-.93-4.06-2.05-8.09-3.08-12.17-4.59-16.25-11.07-32.13-18.51-47.68-1.93-3.86-3.75-7.77-5.74-11.6l-6.29-11.35c-1.05-1.9-2.08-3.81-3.16-5.68l-3.43-5.54-6.88-11.14c-4.76-7.27-9.81-14.4-14.75-21.64l-15.86-20.98,18.49,18.81c5.84,6.56,11.85,13.03,17.6,19.78l8.39,10.27,4.2,5.14c1.35,1.76,2.63,3.58,3.96,5.36l7.91,10.74c2.58,3.65,4.96,7.41,7.46,11.14,9.74,14.97,18.69,30.66,25.9,47.44.15.35.27.68.42,1.03,8.04-29.63,15.35-59.43,23.02-89.11,5.54-20.59,9.85-41.48,14.7-62.23l14.18-62.39-11.67,62.91c-4.01,20.96-7.51,42.02-12.2,62.83-6.79,31.3-13.17,62.69-20.33,93.91,15.51-12.4,31.9-23.44,48.63-33.66l13.03-7.67c4.36-2.5,8.86-4.78,13.25-7.16,8.77-4.89,17.95-9.04,26.92-13.42,4.46-2.26,9.12-4.13,13.7-6.14l2.61-1.13,11.12-4.79c9.27-3.71,18.61-7.22,27.88-10.8-8.81,4.64-17.66,9.16-26.42,13.85l-12.57,7.24-.33.2c-4.26,2.5-8.61,4.84-12.75,7.57-8.37,5.33-16.83,10.4-24.85,16.16-4.03,2.85-8.16,5.56-12.1,8.47l-11.8,8.87c-15.46,12.07-30.31,24.85-43.91,38.65-6.74,6.94-13.35,14-19.36,21.39-1,1.22-1.98,2.4-2.95,3.63l.02.02-1.52,6.28-3.53,14.68-3.75,15.6c-1.22,5.18-2.46,10.39-3.9,15.53l-16.41,61.94c-5.29,20.71-11.39,41.18-17.3,61.69l-8.94,30.81-4.44,15.42-2.11,6.76c5.56-3.51,11.2-6.91,16.85-10.25,22.52-13.18,45.8-24.65,69.43-35.17l17.8-7.66c5.96-2.48,12-4.73,18-7.09,11.94-4.89,24.19-8.89,36.31-13.18,6.03-2.23,12.22-3.98,18.33-5.96l18.39-5.73,11.09-3.06,26-7.19-25.69,9.62-10.27,3.85-17.76,7.32c-5.89,2.48-11.84,4.76-17.63,7.51-11.59,5.33-23.32,10.35-34.66,16.18-5.69,2.86-11.44,5.61-17.08,8.56l-16.78,9.06c-22.19,12.34-43.85,25.55-64.37,40.15-10.22,7.37-20.28,14.87-29.8,22.89-3.51,2.85-6.89,5.79-10.22,8.82l-9.74,31.1c-2.36,7.29-4.74,14.55-7.17,21.81-3.03,9.11-6.09,18.18-9.16,27.27-1.33,3.96-2.65,7.87-3.95,11.8-6.63,20.36-14.08,40.4-21.21,60.59-3.63,10.07-7.11,20.18-10.89,30.2l-11.32,30.05c-3.81,10.02-7.52,20.06-11.44,30.05l-8.51,21.42-3.35,8.42c-1.98,5.08-4,10.14-6.04,15.15,5.78-2.75,11.6-5.38,17.46-7.89,13.28-5.61,26.67-10.9,40.22-15.68,6.06-2.15,12.17-4.2,18.3-6.11,4.94-1.55,9.89-3.2,14.82-4.71l14.97-4.23,29.6-8.31c39.19-11.17,77.77-24.82,115.23-41.22,18.76-8.12,37.24-16.93,55.33-26.5,18.08-9.59,35.94-19.74,52.87-31.31Z"/>
      </g>
      <rect class="cls-10" x="61.46" y="3159.59" width="3174.97" height="68.95"/>
      <g>
        <path class="cls-11" d="M688.49,2788.76c.06,146.16-13.54,271.2-30.13,369.1-.12.6-.18,1.13-.3,1.73h-134.41c-16.58-134.59-8.23-292.38,9.19-439.14,31.02-260.58,90.68-486.5,90.68-486.5,48.14,205.46,64.91,393.08,64.97,554.81Z"/>
        <path class="cls-11" d="M415.8,3159.59h-121.7c-2.74-7.93-5.37-16.05-7.93-24.22-30.66-98.85-49.1-214.11-59.66-329.31-27.98-303.89-1.37-607.19-1.37-607.19,42.89,101.24,76.6,199.2,102.97,292.26,78.93,279.26,91.63,515.32,87.7,668.46Z"/>
        <path class="cls-9" d="M538.99,3159.59h-138.88c-60.61-192.39-74.87-446.18-72.01-668.46,3.52-276.75,33.53-504.7,33.53-504.7,101.72,272.33,150.63,523.01,171.22,734.02,17.36,178.31,14.5,328.29,6.14,439.14Z"/>
        <path class="cls-9" d="M781.08,3159.59h-122.66c0-.54,0-1.13-.06-1.73-5.25-116.57,9.49-248.89,30.13-369.1,34.9-203.07,86.5-371.66,86.5-371.66,59.96,309.86,38.6,569.13,6.09,742.49Z"/>
        <path class="cls-9" d="M286.88,3159.59h-110.13c-58.76-165.67-125.22-436.57-104.1-779.12,0,0,90.5,198.96,153.86,425.59,30.72,109.77,55.06,226.04,59.66,329.31.42,8.17.66,16.23.72,24.22Z"/>
      </g>
      <g>
        <path class="cls-11" d="M3111.98,2788.76c.06,146.16-13.54,271.2-30.13,369.1-.12.6-.18,1.13-.3,1.73h-134.41c-16.58-134.59-8.23-292.38,9.19-439.14,31.02-260.58,90.68-486.5,90.68-486.5,48.14,205.46,64.91,393.08,64.97,554.81Z"/>
        <path class="cls-11" d="M2839.28,3159.59h-121.7c-2.74-7.93-5.37-16.05-7.93-24.22-30.66-98.85-49.1-214.11-59.66-329.31-27.98-303.89-1.37-607.19-1.37-607.19,42.89,101.24,76.6,199.2,102.97,292.26,78.93,279.26,91.63,515.32,87.7,668.46Z"/>
        <path class="cls-9" d="M2962.48,3159.59h-138.88c-60.61-192.39-74.87-446.18-72.01-668.46,3.52-276.75,33.53-504.7,33.53-504.7,101.72,272.33,150.63,523.01,171.22,734.02,17.36,178.31,14.5,328.29,6.14,439.14Z"/>
        <path class="cls-9" d="M3204.57,3159.59h-122.66c0-.54,0-1.13-.06-1.73-5.25-116.57,9.49-248.89,30.13-369.1,34.9-203.07,86.5-371.66,86.5-371.66,59.96,309.86,38.6,569.13,6.09,742.49Z"/>
        <path class="cls-9" d="M2710.37,3159.59h-110.13c-58.76-165.67-125.22-436.57-104.1-779.12,0,0,90.5,198.96,153.86,425.59,30.72,109.77,55.06,226.04,59.66,329.31.42,8.17.66,16.23.72,24.22Z"/>
      </g>
      <g>
        <g>
          <polygon class="cls-1" points="1609.04 3045.29 1605.88 3091.01 1694.03 3091.01 1698.72 3027.3 1609.04 3045.29"/>
          <g>
            <path class="cls-2" d="M1846.72,3160.03h-242.54v-80.16c45.68,15.83,92.81,0,92.81,0,0,5.28,26.35,24.26,94.9,40.06,43.56,10.08,53.91,23.55,55.66,32.01.99,4.87-.82,8.09-.82,8.09Z"/>
            <path class="cls-14" d="M1780.99,3130.15c-26.01.34-72.07-14.84-79.78-24.13-7.75-9.29-15.83-17.51-45.34-14.09-15.77,1.82-36.12-1.75-51.68-5.45v-6.62c45.68,15.83,92.81,0,92.81,0,0,5.28,26.35,24.26,94.9,40.06,0,0,15.11,9.87-10.9,10.21Z"/>
            <g>
              <path class="cls-5" d="M1739.98,3127.18c-.28.04-.57,0-.85-.12-.77-.35-1.12-1.25-.78-2.03.27-.61,6.89-15.05,23.79-16.11.85-.05,1.58.59,1.63,1.44s-.58,1.58-1.44,1.63c-14.99.94-20.93,13.75-21.17,14.29-.22.5-.68.82-1.18.89Z"/>
              <path class="cls-5" d="M1727.66,3122.03c-.2,0-.41-.04-.61-.13-.78-.33-1.14-1.24-.81-2.01.26-.62,6.67-15.16,23.55-16.46.84-.07,1.58.57,1.65,1.41.06.85-.57,1.58-1.41,1.65-14.98,1.15-20.72,14.05-20.96,14.6-.25.58-.82.93-1.41.93Z"/>
              <path class="cls-5" d="M1715.9,3118.91c-.17,0-.35-.03-.52-.09-.8-.29-1.21-1.17-.92-1.96.23-.63,5.76-15.53,22.54-17.82.84-.12,1.62.47,1.73,1.31.11.84-.47,1.62-1.31,1.73-14.89,2.03-19.86,15.25-20.06,15.81-.23.62-.82,1.01-1.45,1.01Z"/>
            </g>
            <path class="cls-14" d="M1846.72,3160.03h-242.54v-8.09h243.36c.99,4.87-.82,8.09-.82,8.09Z"/>
          </g>
        </g>
        <g>
          <polygon class="cls-1" points="1234.44 2991.29 1218.51 3034.26 1303.07 3059.14 1325.55 2999.34 1234.44 2991.29"/>
          <g>
            <path class="cls-2" d="M1430.07,3168.45l-232.68-68.46,22.63-76.9c39.36,28.09,89.03,26.2,89.03,26.2-1.49,5.06,18.43,30.72,79.73,65.22,38.94,21.96,45.07,37.8,44.36,46.42-.42,4.95-3.07,7.53-3.07,7.53Z"/>
            <path class="cls-14" d="M1375.44,3121.23c-25.05-7.01-64.95-34.58-69.73-45.67-4.81-11.1-10.25-21.27-39.52-26.31-15.64-2.71-34.16-11.87-48.04-19.82l1.87-6.35c39.36,28.09,89.03,26.2,89.03,26.2-1.49,5.06,18.43,30.72,79.73,65.22,0,0,11.71,13.74-13.34,6.72Z"/>
            <g>
              <path class="cls-5" d="M1336.95,3106.81c-.28-.04-.55-.16-.78-.35-.64-.55-.72-1.52-.17-2.16.44-.51,10.86-12.5,27.37-8.74.83.19,1.35,1.01,1.16,1.84-.19.83-1.01,1.35-1.84,1.16-14.65-3.33-23.96,7.28-24.34,7.74-.35.41-.88.59-1.39.52Z"/>
              <path class="cls-5" d="M1326.57,3098.39c-.19-.06-.38-.15-.55-.29-.65-.54-.74-1.51-.21-2.16.43-.52,10.68-12.66,27.24-9.14.83.17,1.36.99,1.18,1.82-.18.83-.99,1.36-1.82,1.18-14.7-3.13-23.85,7.63-24.23,8.09-.4.49-1.05.66-1.62.49Z"/>
              <path class="cls-5" d="M1316.18,3092.07c-.17-.05-.33-.13-.47-.24-.68-.5-.83-1.46-.33-2.14.4-.54,9.91-13.27,26.65-10.73.84.12,1.42.91,1.29,1.75s-.91,1.42-1.75,1.29c-14.86-2.25-23.36,9.03-23.71,9.51-.39.53-1.07.74-1.67.56Z"/>
            </g>
            <path class="cls-14" d="M1430.07,3168.45l-232.68-68.46,2.28-7.76,233.47,68.69c-.42,4.95-3.07,7.53-3.07,7.53Z"/>
          </g>
        </g>
        <path class="cls-1" d="M1635.74,1572.23s168.16-63.68,175.2-64.69c7.04-1.01,116.85-104.85,116.85-104.85l45.21,9.65s-68.84,120.67-110.3,153.84c-41.46,33.17-193.33,95.47-193.33,95.47l-33.62-89.42Z"/>
        <g>
          <path class="cls-17" d="M1903.69,1234.81c21.24-25.48,50.68-40.08,81.26-43.17,31.42-3.18,64.03,5.8,90.2,27.61,21.78,18.15,35.61,42.3,41.09,68.03,1.72,8.05,2.62,16.25,2.69,24.48.24,27.22-8.61,54.66-26.97,77.43-.41.51-.83,1.02-1.25,1.53-19.81,23.76-46.75,38.06-75.09,42.39-33.27,5.08-68.48-3.59-96.37-26.83-33.61-28.02-48.3-70.33-42.58-110.7,1.2-8.5,3.31-16.92,6.34-25.1,4.27-11.54,10.38-22.61,18.35-32.78.76-.97,1.54-1.93,2.33-2.89Z"/>
          <path class="cls-4" d="M2063.97,1309.89c.86-.45,1.88-.48,2.84-.66,3.62-.7,6.29-3.65,9-6.14,2.71-2.49,6.31-4.79,9.86-3.8.8.22,1.57.62,2.41.63,1.84.03,3.16-1.69,4.16-3.23.02-1.34,1.03-1.93,2.33-2.3,1.29-.37,2.71-.43,3.85-1.14,1.4-.87,2.16-2.59,3.65-3.29,1.52-.72,3.4-.17,4.95-.82,1.01-.42,1.87-1.34,2.96-1.34.97,0,1.81.75,2.77.83,1.27.1,2.31-.94,3.51-1.36,1.72,8.05,2.62,16.25,2.69,24.48-.56.23-1.09.53-1.58.87-1.55,1.08-2.78,2.56-4.26,3.73-3.11,2.46-7.31,3.55-9.78,6.66-1.73,2.17-2.35,5.04-2.42,7.82-.03,1.1.02,2.23-.38,3.25-.31.79-.86,1.46-1.31,2.18-1.47,2.38-1.77,5.27-2.32,8.01-.54,2.75-1.5,5.64-3.79,7.26-1.69,1.19-1.72,2.81-3.36,4.08-1.09.85-2.25,1.68-2.98,2.85-.67,1.08-.92,2.36-1.16,3.6-.44,2.29-.88,4.59-1.32,6.88-.15.79-.3,1.6-.14,2.39.18.87.71,1.61,1.14,2.38,1.18,2.15,1.55,4.66,2.67,6.84.93,1.81,2.34,3.34,3.15,5.2.47,1.09.71,2.25.87,3.42-.41.51-.83,1.02-1.25,1.53-19.81,23.76-46.75,38.06-75.09,42.39-.08-.46-.25-.91-.53-1.29-.8-1.12-2.36-1.62-3.66-1.18.36-.96,1.46-1.36,2.27-1.99.81-.63,1.2-2.13.25-2.52-.31-.13-.67-.07-1,.04-1.72.58-2.89,2.46-4.69,2.62-2.16.18-3.59-2.12-5.44-3.24-1.03-.62-2.24-.89-3.35-1.35-1.87-.79-3.45-2.14-4.98-3.47-.72-.62-1.46-1.27-1.89-2.12-1.2-2.38.52-5.3,2.75-6.76,1.49-.98,3.23-1.58,5-1.74,1.91-.17,4.11.34,5.04,2.02.73,1.32.37,3.13-.8,4.07-.38.3-.88.62-.86,1.1.01.39.36.67.67.89,1.54,1.09,3.6,2.21,5.18,1.17,1.06-.7,1.73-2.29,2.99-2.12.44.06.81.34,1.21.53,2.57,1.21,5.38-1.45,8.22-1.33.83.04,1.63.31,2.43.56,1.05.32,2.17.58,3.23.31,1.06-.27,2.02-1.24,1.91-2.33-.17-1.77-2.65-2.33-3.42-3.93,1.24-.2,1.29-2.2.28-2.95-1.01-.75-2.4-.61-3.65-.44-1.8.25-3.7.55-5.09,1.71-1.43,1.19-2.18,3.18-3.88,3.94-2.15.97-4.83-.8-5.37-3.1-.16-.68-.19-1.43-.6-2-.23-.31-.55-.54-.85-.79-1.76-1.54-2.26-4.33-1.15-6.38.58-1.06,1.51-1.91,2-3.02.31-.7.41-1.47.67-2.19.65-1.79,2.2-3.08,3.68-4.28.54-.43,1.09-.87,1.73-1.12,1.05-.4,2.34-.19,3.15.6.8.79,1.03,1.98,1.37,3.05.35,1.07,1,2.22,2.1,2.44,1.57.31,2.73-1.34,4.05-2.26,2.17-1.5,5.15-.98,7.62-.04.52.2,1.09.42,1.63.26.5-.15.85-.59,1.23-.95.87-.83,2.04-1.32,3.24-1.35.76-.02,1.52.13,2.29.11,1.96-.05,3.67-1.24,5.48-1.99,1.99-.83,4.48-1.51,6.63-1.52,2.27-.01,3.79.11,5.77-1.42,1.57-1.21,2.75-2.84,3.91-4.45,1.96,3.01,4.15,6.19,7.52,7.44,2.26.84,4.87.64,6.98-.51,1.29-.71,2.37-1.73,3.43-2.75.78-.74,1.57-1.51,2.01-2.48.45-.98.47-2.22-.23-3.04-1.67-.44-3.47-.33-5.07.3-.42.16-.85.37-1.3.36-1.08-.02-1.77-1.29-1.64-2.37.13-1.07.82-1.98,1.4-2.89.59-.91,1.12-1.97.91-3.03-.16-.81-.74-1.5-.87-2.31-.35-2.17,2.42-3.56,3-5.68.52-1.89-1.26-4.02-3.21-3.85-1.21.11-2.31.93-3.52.88-1.41-.05-2.53-1.28-3.01-2.6-.48-1.32-.49-2.76-.67-4.16-.09-.66-.23-1.34-.62-1.88-.34-.47-.85-.79-1.29-1.18-1.29-1.14-1.96-2.94-1.73-4.64.22-1.69,1.13-3.33.73-5.05-.45-1.92-2.06-3.19-1.32-5.37.25-.74.75-1.37.99-2.12.77-2.37-1.24-4.67-1.81-7.1-.17-.71-.21-1.45-.49-2.12-.43-1.06-1.38-1.82-1.95-2.81-1.14-2.02-.51-4.6-1.23-6.82-.18-.55-.44-1.11-.29-1.67.09-.34.32-.63.55-.9.84-1,1.67-2.01,2.51-3.01.52-.63,1.07-1.27,1.79-1.66Z"/>
          <path class="cls-4" d="M1903.69,1234.81c.14-.17.28-.33.42-.5,19.49-23.13,45.78-37.2,73.5-41.7,2.44-.4,4.89-.72,7.35-.97-2.18,2.05-4.59,4.02-4.53,7.13.05,2.63,2.2,4.95,1.97,7.57-.26,2.93-3.38,4.78-6.29,5.2-2.91.41-5.92-.1-8.79.52-4.27.93-8.16,4.32-12.44,3.48-1.1-.22-2.18-.72-3.3-.62-1.23.11-2.27.93-3.45,1.3-3.79,1.2-7.69-2.37-11.62-1.75-4.02.63-6.03,5.13-7.16,9.03-.32,1.08-.68,2.26-1.61,2.89-.69.47-1.56.55-2.37.71-4.98.98-8.69,5.18-11.22,9.58-1.46,2.52-3.33,5.6-6.23,5.41-2.17-.14-3.69-2.08-5.33-3.49-.38-.33-.78-.63-1.19-.92.76-.97,1.54-1.93,2.33-2.89Z"/>
          <path class="cls-4" d="M1883.01,1270.47c.82,1.65,1.15,3.47.57,5.2,3.17,3.92,9.05-2.69,12.03-4.02.69-.31,1.39-.59,2.12-.78,3.76-1,7.88.45,10.8,3.01,2.07-2.56,1.58-6.26,2-9.53.36-2.77,1.53-5.52,3.65-7.34,2.12-1.83,5.25-2.57,7.81-1.46,2.32,1.01,4.28,3.44,6.77,3.03,1.88-.3,3.11-2.17,3.7-3.98.59-1.81.8-3.79,1.78-5.42.77-1.27,1.95-2.23,2.87-3.4.91-1.17,1.57-2.74,1.04-4.13-.29-.75-.89-1.34-1.26-2.06-1.1-2.16.11-5.03-1.18-7.08-.34-.54-.84-.98-1.14-1.55-.46-.87-.4-1.92-.32-2.9.17-2.16.5-4.62,2.3-5.83,1.75-1.18,4.21-.66,6.03-1.73.5-.29,1.01-.71,1.58-.59.41.09.7.45.95.79,1.54,2.05,3.07,4.09,4.61,6.14.32.42.67.87,1.18,1.03.51.16,1.04-.01,1.57-.08,2.95-.37,5.45,3.45,3.94,6.01-.76,1.27-2.25,2.25-2.24,3.74,0,.66.32,1.27.59,1.87,1.02,2.31,1.11,5.42-.87,6.98-.45.35-1.03.61-1.58.48-1.28-.29-1.9-2.36-3.17-2.04-.02,2.66-2.01,5.17-4.59,5.81-1.19.29-2.62.3-3.36,1.28-1.04,1.35.09,3.25.16,4.95.06,1.41-.65,2.73-1.06,4.08-1.05,3.44-.09,7.41,2.42,9.98.8.82,1.77,1.51,2.88,1.77,1.69.4,3.44-.24,5-1.01,3.48-1.7,6.63-4.07,9.24-6.94,1.74.83,1.48,3.34.95,5.19-.89,3.08-1.84,6.28-4.01,8.64-.88.96-1.95,1.75-2.73,2.79-.79,1.04-1.27,2.45-.77,3.65.33.8,1.03,1.38,1.53,2.08,1.06,1.51,1.14,3.47,1.58,5.26.44,1.79,1.62,3.72,3.46,3.83.73.05,1.44-.21,2.13-.46,3-1.1,6-2.19,9.01-3.29,1.4-.51,2.95-1.02,4.32-.46,1.09.44,1.83,1.47,2.37,2.52,1.94,3.8,1.91,8.54-.09,12.31,5.5-3.19,7.32-11.35,3.69-16.57-.57-.82-1.26-1.59-1.51-2.55-.44-1.67.54-3.35,1.48-4.79,1.53-2.37,3.45-4.99,6.26-5.24,1.47-.13,2.9.43,4.35.68,3.42.61,11.04-1.2,12.05-5.13.55-2.13-.88-4.28-.81-6.48.1-2.95,2.75-5.07,5.16-6.77.61-.43,1.27-.88,2.02-.94,1.21-.1,2.27.82,3.47.99,1.1.15,2.18-.36,3.18-.85,2.06-1.01,4.11-2.02,6.16-3.04,1.17-.58,2.35-1.16,3.52-1.74.99-.49,1.97-.97,2.89-1.58,2.67-1.78,4.54-4.49,6.53-7.01,1.81-2.3,3.8-4.51,6.3-6.03,2.5-1.52,5.58-2.28,8.39-1.49,2.81.79,5.19,3.36,5.23,6.28,0,.47-.05.97-.3,1.37-.38.64-1.13.94-1.71,1.42-1.4,1.16-1.64,3.23-1.39,5.03.24,1.8.85,3.57.73,5.39-.29,4.35-4.47,7.26-6.65,11.04-1.22,2.11-1.82,4.52-2.8,6.75-2.4,5.44-6.69,8.47-10.67,12.5-3.78,3.81-4.69,9.71-8.93,13.34-.72.62-1.6,1.32-1.56,2.27.02.54.34,1.01.64,1.45.44.63.88,1.27,1.32,1.9,1.68,2.42,3.43,4.91,5.91,6.51,2.27,1.47,5.14,2.18,6.79,4.33,2.21,2.89,1.24,7.12-.6,10.26-1.83,3.14-4.44,5.91-5.49,9.39-.47,1.57-.63,3.27-1.48,4.67-1.89,3.08-6.24,3.39-9.17,5.51-2.01,1.45-3.27,3.69-4.72,5.7s-3.36,3.96-5.81,4.31c-2.46.35-4.11-.07-6.35-1.14-2.16-1.03-4.49,1.17-5.53,3.34-1.03,2.17-1.89,4.8-4.14,5.64-1.57.59-3.33.07-4.98.32-1.65.25-3.32,2.14-2.29,3.46-2.26,2.12-5.27,3.29-8.3,3.91-4.6.94-9.7.65-13.53-2.08-1.7-1.21-3.39-2.95-5.46-2.71-.72.09-1.38.41-2.07.62-1.1.32-2.29.34-3.39.03-1.54.3-2.77,1.76-2.79,3.33-.02,1.57,1.17,3.07,2.7,3.41,1.98.44,3.86-.89,5.74-1.64,1.88-.76,4.69-.51,5.13,1.47.15.66-.04,1.36-.34,1.96-1.61,3.2-5.81,3.82-8.93,5.58-1.7.96-3.18,2.35-5.03,2.98-2.5.85-5.32.14-7.57-1.26-2.24-1.39-4.02-3.41-5.77-5.39-1.96-2.23-4.01-5.41-2.4-7.89-5.04-1.54-9.9-3.71-14.41-6.44-.9-.54-1.81-1.12-2.85-1.3-.64-.11-1.3-.06-1.92-.23-2-.53-2.87-2.91-4.63-3.99-1.02-.62-2.26-.76-3.41-1.06-4.42-1.18-7.63-4.89-10.55-8.41-2.16-2.61-4.46-5.65-4.02-9.01.13-1.02.52-2.02.43-3.04-.16-1.86-1.79-3.21-2.56-4.9-1.51-3.35.51-7.61-1.29-10.81-.71-1.26-1.91-2.14-2.95-3.14-2.9-2.78-4.67-6.7-4.84-10.71-.1-2.26.29-4.56-.19-6.78-.59-2.72-2.44-4.85-4.84-6.24,1.2-8.5,3.31-16.92,6.34-25.1Z"/>
          <path class="cls-12" d="M2014.75,1248.98c3.68-2.11,6.4-5.52,9.13-8.75,4.3-5.09,9.04-10.09,15.14-12.76,6.1-2.68,13.88-2.51,18.77,2.02,1.96,1.82,3.32,4.18,4.41,6.63.7,1.58,1.31,3.24,1.43,4.96.15,2.09-.42,4.15-.98,6.17-1.62,5.79-3.27,11.67-6.42,16.8-2.05,3.35-4.83,6.71-4.58,10.63.06.99.32,1.96.35,2.94.21,6.72-6.34,8.21-10.46,11.57-1.48,1.21-11.93,13.4-9.16,15.36,4.96,3.5,10.04,7.19,13.07,12.45,3.03,5.26,3.42,12.54-.72,16.97-1.89,2.02-4.74,3.68-4.87,6.44-.07,1.44.67,2.78.86,4.21.45,3.38-2.25,6.41-5.24,8.04s-6.41,2.38-9.31,4.17c-6.03,3.73-9.07,11.48-15.61,14.2-6.14,2.55-13.56-.15-19.62,2.6-1.24.56-2.36,1.33-3.49,2.1l-6.77,4.63c-6.19,4.23-12.38,8.46-18.68,12.52-1.98,1.27-4.01,2.54-6.29,3.12-5.86,1.47-11.72-1.92-16.81-5.16-5.02-3.2-10.11-6.46-13.99-10.98-2.04-2.37-3.77-5.11-6.37-6.85-3.35-2.24-7.62-2.49-11.4-3.89-6.39-2.36-11.13-7.95-14.2-14.03s-4.75-12.75-6.92-19.21c-1.51-4.49-3.27-8.9-5.26-13.19-1.79.33-2.83,2.35-2.77,4.16.05,1.82.89,3.5,1.56,5.19,2.55,6.4,2.81,13.47,4.63,20.11,4.08,14.82,15.55,26.35,27.2,36.37,24.03,20.67,52.67,38.77,84.35,39.68-3.52-2.72-7.4-6.24-6.97-10.67.21-2.17,1.5-4.16,1.56-6.34.05-1.69-.64-3.31-.77-5-.13-1.68.62-3.7,2.27-4.04,1.15-.24,2.37.43,3.51.1,1.24-.35,1.86-1.71,2.37-2.9,2.54-5.93,6.32-11.32,11.03-15.73,1.08-1.01,2.28-2.01,3.73-2.3,5.41-1.06,8.89,7.83,14.31,6.88,2.77-.49,4.86-3.53,7.65-3.17,1.5.2,2.8,1.39,4.3,1.27,2.13-.17,3.28-2.8,5.34-3.36,1.1-.3,2.26.04,3.4.19,5.21.67,11.46-4.25,11.86-9.49,1.81.46,3.63.91,5.44,1.37,2.79-.33,2.81-4.66.99-6.8s-4.66-3.54-5.62-6.18c-.45-1.25-.41-2.61-.37-3.93.29-8.93.59-17.86.88-26.79.04-1.23.08-2.49-.29-3.67-.55-1.75-1.92-3.1-3.16-4.46-2.57-2.82-4.81-6.14-5.45-9.9-.65-3.77.6-8.03,3.78-10.15,1.87-1.25,4.15-1.64,6.29-2.34,3.21-1.04,6.13-2.79,9.02-4.52,3.57-2.14,7.14-4.27,10.72-6.41,7-4.19,14.01-8.38,20.92-12.71.85-.53,1.79-1.2,1.91-2.2.11-.88-.47-1.68-1-2.4-3.48-4.67-6.31-9.82-8.39-15.26-1.51-3.96-2.62-8.08-4.49-11.89-1.49-3.05-3.45-5.86-5.5-8.56-7.81-10.26-17.32-19.34-28.46-25.83-12.43-7.25-26.52-11.11-40.59-14.11-4.31-.92-8.71-1.77-13.1-1.35-4.39.42-8.83,2.29-11.41,5.86-4.33,6-3.12,15.92-9.64,19.42-4.33,2.33-10.32.46-14.12,3.58-2.32,1.9-3.08,5.22-2.65,8.2.42,2.97,1.84,5.7,3.24,8.35-5.94,2.78-12.29,5.96-15.27,11.8-1.16,2.28-.99,6.03,1.55,6.31,1,.11,1.97-.43,2.97-.41,2.68.07,3.58,3.68,5.75,5.25,1.88,1.36,4.67,1.12,6.34,2.74,1.95,1.9,1.25,5.09.87,7.79-.39,2.69.42,6.32,3.13,6.56,3.04.27,4.03-3.75,5.02-5.87.5-1.09,1.31-3.05,2.56-3.5,1.01-.37.89.1,1.64.74.83.7,1.85,1.07,2.94.99,1.44-.1,2.77-.89,3.82-1.88,1.46-1.38,2.47-3.15,3.46-4.9,1.29-2.28,2.6-4.62,3.05-7.2.18-1.04.22-2.12.64-3.1,1.04-2.45,5.8-3.28,8.11-3.9,3.37-.91,6.85-1.64,9.91-3.39Z"/>
          <path class="cls-8" d="M1939.47,1363.18c5.41,2.58,11-2.84,15.84-4.52,2.86-.99,6.11-1.1,9.08-.6,3.51.59,5.73,1.19,8.76-.95,2.06-1.45,4.7-2.71,7.25-2.81,2.24-.09,4.52.73,6.7.18,2.61-.66,4.32-3.05,6.18-4.99,4.73-4.94,11.34-7.5,17.35-10.76,6.01-3.26,11.99-7.91,13.53-14.58.61-2.65.22-5.89-2.06-7.38-.99-.65-2.2-.86-3.34-1.18-4.02-1.1-7.79-3.77-9.31-7.65s-.21-8.93,3.46-10.89c1.82-.97,4-1.15,5.76-2.23,4.98-3.03,3.85-10.78,7.26-15.5,1.81-2.51,4.75-3.93,7.05-6.01s3.97-5.61,2.3-8.22c-2.09-3.28-7.34-2.12-10.18.54-4.99,4.67-6.53,12.1-11.28,17.02-5.94,6.15-16.13,7.59-20.56,14.91-3.06,5.05-2.47,11.59-5.11,16.86-2.5,4.99-7.99,8.34-13.57,8.27-.96-.01-1.97-.13-2.76-.69-1.77-1.26-1.54-3.96-.79-6,.75-2.04,1.83-4.22,1.13-6.28-.86-2.52-4.14-3.47-6.68-2.72s-4.53,2.72-6.42,4.58c-4.94,4.86-10.66,9.78-17.58,10.18-1.95.11-4.11-.25-5.38-1.73-.74-.86-1.08-1.98-1.56-3-1.91-4.05-6.3-7.31-5.92-11.77.56-6.6,11.21-9.78,9.98-16.29-.29-1.54-1.26-2.85-1.86-4.3-1.23-2.94-.86-6.5.95-9.12.46-.67-3.07-2.91-3.24-3.39-.3-.87.52-2.71.67-3.67.51-3.26,1.55-5.5,2.7-8.55,1.25-3.31.51-7.4,2.78-10.11,1.85-2.21,5.19-2.76,6.94-5.06.99-1.3,1.32-3.08.87-4.65-.34-1.18-1.08-2.2-1.51-3.35-.71-1.9-.51-4.04-1.12-5.98-.61-1.94-2.66-3.76-4.52-2.94-1.45.64-1.9,2.49-1.79,4.07.28,4.29,3.22,8.33,2.39,12.54-.61,3.12-3.15,5.47-4.51,8.35-.77,1.62-1.16,3.4-1.89,5.04-.67,1.5-1.64,2.87-2.83,4.02-3.56,3.43-8.94,4.7-11.96,8.61-2.07,2.68-3.29,5.62-5.51,8.1-2.12,2.36-2.47,5.49-3.83,8.33-2.03,4.26-6.39,7.31-11.09,7.77-3.75.37-8.7-.17-10.11,3.32-.73,1.82.04,3.86.8,5.66,4.14,9.82,8.28,19.64,12.42,29.46,1.26,2.99,2.62,6.12,5.2,8.09,2.39,1.83,5.47,2.4,8.33,3.32,6.94,2.22,13.11,6.78,17.26,12.77,1.53,2.21,2.93,4.73,5.36,5.89Z"/>
          <path class="cls-8" d="M2058.13,1411.47c3.03-.74,6.17-1.22,8.93-2.67,2.42-1.27,4.42-3.2,6.37-5.11,3.47-3.39,6.94-6.77,10.41-10.16-3.49.58-6.05,3.45-8.96,5.47-2.91,2.02-7.41,2.98-9.61.21-.66-.83-1.12-1.99-2.15-2.24-.57-.14-1.17.06-1.72.29-4.67,1.95-8.78,6.34-13.8,5.65-1.81-.25-3.46-1.17-5.26-1.52-5.34-1.05-10.91,3-16.07,1.3-2.05-.68-3.72-2.19-5.66-3.15-1.94-.96-4.56-1.23-6.04.35,1.39,3.23,5.55,4.01,9.07,4.16,3.51.15,7.58.36,9.65,3.21,2.54,3.49.32,8.34-1.97,11.99-1.95,3.11-7-.13-7.83,3.51-.92,4.07,6.8-.08,8.47-.78,8.68-3.61,16.98-8.27,26.16-10.52Z"/>
          <path class="cls-8" d="M2083.86,1378.48c-.86,0-1.74-.02-2.53-.34-.79-.33-1.48-1.05-1.5-1.9-.04-1.52,1.93-2.84,1.3-4.22-.15-.33-.43-.58-.64-.87-1.21-1.64-.15-3.91.09-5.94.41-3.45-2.06-6.93-5.38-7.97-.57-.18-1.16-.3-1.67-.6-1.23-.73-1.65-2.28-1.97-3.67-.33-1.45-.66-2.94-.48-4.41.13-1.13.56-2.24.51-3.38-.05-1.19-.62-2.32-.61-3.51,0-.8.27-1.57.36-2.37.15-1.34-.22-2.68-.63-3.96-.71-2.24-1.55-4.44-2.51-6.59-.65-1.44-1.35-2.88-1.63-4.43s-.08-3.28.94-4.48c1.95-.83,3.62-2.31,4.66-4.16.53-.94.91-1.98,1.54-2.86,1.8-2.52,5.18-3.23,8.24-3.75,1.88.93,3.82-.39,5.49-1.66,1.66-1.27,3.14-2.9,5.13-3.56,1.39-.46,2.91-.39,4.3-.87,1.95-.66,3.38-2.28,4.98-3.56,1.33-1.07,2.83-1.93,4.42-2.55,1.69-.65,3.62-1.02,5.27-.3s2.74,2.89,1.8,4.44c-.22.35-.52.66-.65,1.06-.17.51,0,1.06.18,1.56.65,1.8,1.53,3.51,2.63,5.08-.38,1.04-1.52,1.61-2.62,1.78-1.1.17-2.22.03-3.32.18-3.14.43-5.47,3.01-7.52,5.43-1.06,1.26-2.17,2.6-2.47,4.22-.15.81-.1,1.64-.23,2.45-.42,2.56-2.62,4.51-3.26,7.02-.51,1.98-.01,4.17-.8,6.06-.72,1.72-2.36,2.85-3.53,4.31-2.68,3.34-2.77,8.26-5.56,11.51-.88,1.02-2,1.85-2.72,2.99-.96,1.53-1.16,2.92-1.03,4.72.12,1.7.79,3.38.51,5.06-.18,1.11-.78,2.13-.99,3.23-.21,1.08-.05,2.23.46,3.21.23.44.53.86.64,1.34.15.62-.03,1.26-.08,1.9-.12,1.67-.51,3.48.9,4.38Z"/>
          <path class="cls-8" d="M1904.11,1234.31c19.49-23.13,45.78-37.2,73.5-41.7-.39.75-.72,1.53-.96,2.34-.5,1.65-.79,3.56-2.19,4.57-.51,1.64.69,3.71-.43,5.01-.33.39-.82.6-1.28.81-3.6,1.56-7.51,3.07-11.39,3.75-2.99.53-5.44,2.44-8.35,2.91-1.93.31-3.92-.52-5.83-.13-.8.16-1.54.54-2.35.62-1.4.14-2.72-.59-4.08-.98-2.46-.69-5.18-.18-7.4,1.09-2.22,1.27-3.98,3.25-5.28,5.45-.88,1.5-1.62,3.16-3,4.21-.77.59-1.69.95-2.44,1.56-.97.79-1.59,1.95-2.57,2.74-2.03,1.65-5.3,1.47-6.9,3.54-1.09,1.41-1.05,3.49-2.22,4.83-1.09,1.24-3.02,1.49-4.56.9-.86-.33-1.61-.88-2.25-1.55Z"/>
        </g>
        <path class="cls-1" d="M2022.27,1425.44s-.78,3.26-2.2,9.07c-.37,1.52-.78,3.21-1.23,5.07-11.37,45.99-48.46,190.38-74.98,226.37-31.66,42.95-172.64,119.86-172.64,119.86,0,0-8.5-.96-18.77-6.15-19.55-9.92-45.6-35.26-31.75-98.89,0,0,101.63-39.72,140.54-63.83,38.17-23.69,98.47-185.45,100.68-191.33,0,0-.02-.02,0-.05.02-.07.05-.12.05-.12h60.3Z"/>
        <g>
          <path class="cls-13" d="M1737.98,2669.47l-24.8,391.19h-119.13l-22.62-400.33-49.76-147.01s-31.17,153.63-33.86,171.51l-.05.39c-2.28,15.83-153.33,355.08-153.33,355.08l-120.35-33.93s114.06-343.64,120.35-362.92c6.32-19.31,4.8-423.39,4.8-423.39,0,0,58.04-12.62,133.73-17.54,71.5-4.63,158.75-2.4,227.6,23.91l37.41,443.04Z"/>
          <path class="cls-6" d="M1713.18,3060.66h-119.13l-22.62-400.33-49.76-147.01s-31.17,153.63-33.86,171.51l26.34-259.72s79.9,212.6,79.9,224.66-14.09,161.29,18.11,281.97c32.2,120.67,101.02,128.93,101.02,128.93Z"/>
          <path class="cls-6" d="M1472.97,2202.52c-5.1,21.86-16.71,42.61-42.36,43.74,0,0-51.24,9.99-55.68,20.55-4.46,10.56-2.66,316.64-14.64,382.97-12.01,66.35-176.9,310.63-25.85,390.53l-120.35-33.93s114.06-343.64,120.35-362.92c6.32-19.31,4.8-423.39,4.8-423.39,0,0,58.04-12.62,133.73-17.54Z"/>
        </g>
        <path class="cls-7" d="M1678.12,1660.42s-54.91,31.22-117.24,46.99c-2.18.56-8.09,3.63-16.64,8.21-46.46,24.97-171.27,95.24-205.01,55.13,0,0-9.8-82.18,68.6-124.4,78.41-42.22,234.85-80.17,234.85-80.17l26.8,71.28,8.62,22.96Z"/>
        <path class="cls-16" d="M1678.12,1660.42s-54.91,31.22-117.24,46.99c-2.18.56-8.09,3.63-16.64,8.21-6.59-10-29.16-48.51,14.43-45.77,50.03,3.14,110.8-32.39,110.8-32.39h.02l8.62,22.96Z"/>
        <path class="cls-3" d="M2075.44,1428.95c-.76.32-1.54.59-2.38.86-16.64,5.24-35.94,8.62-54.22,9.78-11.37,45.99-48.46,190.38-74.98,226.37-31.66,42.95-172.64,119.86-172.64,119.86,0,0-8.5-.96-18.77-6.15l3.7-21.76c52.75,1.52,154.53-55.03,188.47-113.08,33.91-58.04,67.85-196.38,65.2-200.91-.66-1.15-2.79-2.5-5.64-3.87-7.89-3.85-21.07-7.84-22.17-8.16,11.74,2.3,25.14,2.92,38.05,2.62,27.98-.56,53.71-5.27,55.37-5.56Z"/>
        <path class="cls-7" d="M1666.43,1854.42s-12.05,202.8,40.72,365.64c0,0-21.76,8.92-57.8,17.57-65.96,15.8-179.74,30.65-295.49-11.91-4.88-1.76-9.75-3.65-14.63-5.66,0,0,0-.02.02-.1,1.05-3.75,35.75-129,9.02-287.89-11.27-67.04-16.56-120.28-12.45-161.29,5.78-57.65,30.11-91.12,82.45-104.79.07-.02.12-.02.12-.02,0,0,15.07,36.19,120.62,28.64,105.55-7.55,126.65,4.04,181.68-13.82,0,0,33.67,39.89,46.14,76.71,3.36,9.95,5.19,19.67,4.39,28.32l-104.79,68.6Z"/>
        <path class="cls-18" d="M1432.05,1618.95s-77.53-41.7-77.53-107.57,38.77-60.87,38.77-60.87c0,0,12.45-45.85,79.41-45.85,31.59,0,70.03-50.84,115.27-10.84,18.16,16.05,9.15,45.01-8.35,56.69l-15,77.54-27.51,66.7-37.52,34.77-36.69,14.42-30.85-25Z"/>
        <path class="cls-3" d="M1578.23,1692.45c-11.66.44-24.62,1.1-39.2,2.16-105.55,7.55-120.62-28.64-120.62-28.64,0,0,18.18,2,13.64-47.01,0,0,45.6,14.71,73.88-16.66,18.6,23.91,41.38,7.87,41.38,7.87,0,0-2.25,62.77,30.92,82.28Z"/>
        <path class="cls-1" d="M2075.54,1428.92s-.02,0-.1.02c-.76.32-1.54.59-2.38.86-16.64,5.24-35.94,8.62-54.22,9.78-5,.32-9.9.49-14.65.47-11.66-.05-22.42-1.13-31.14-3.33-8.8-2.23-11.88-6.47-11.12-11.1,0,0-.02-.02,0-.05,1.37-8.75,16.22-18.99,31.85-20.19,23.96-1.84,29.97-23.5,42.41-22.13,12.45,1.4,4.14,19.92-3.7,24.26-7.82,4.31,36.7,11.27,39.5-4.78,5.22-29.97,15.83-50.35,23.2-27.78,0,0,9.58,42.36-19.65,53.98Z"/>
        <path class="cls-16" d="M1666.43,1854.42s-12.05,202.8,40.72,365.64c0,0-21.76,8.92-57.8,17.57-78.6-122.07-31.17-401.04-31.17-401.04,68.36-6.03,148.63-79.09,148.63-79.09h.02c3.36,9.95,5.19,19.67,4.39,28.32l-104.79,68.6Z"/>
        <path class="cls-16" d="M1353.87,2225.72c-4.88-1.76-9.75-3.65-14.63-5.66,0,0,0-.02.02-.1,1.05-3.75,35.75-129,9.02-287.89-11.27-67.04-16.56-120.28-12.45-161.29,1.13-.02,2.25-.02,3.41-.02,0,0-10.05,88.45,37.71,199.03,25.89,59.96-9.95,12.23-23.08,255.94Z"/>
        <path class="cls-1" d="M1553.76,1636.47s-27.28-7.74-47.83-34.17v-.02c7.37-8.16,14.11-19.24,19.49-34.17,0,0-16.66-4.19-14.16-27.55,2.5-23.31,34.91-37.49,48.73-16.66,0,0-7.86-45.85,19.64-73.38,0,0,32.51,25.86,37.52,90.88,5.01,65.04-7.49,105.07-63.38,95.07Z"/>
      </g>
      <path class="cls-5" d="M1806.19,1140.65H248.97c59.05-138.87,127.42-268.32,203.84-386.44,63.67-17.76,125.6-2.6,125.6-2.6,41.38-66.2,88.3-5.51,88.3-5.51,13.8-63.46,85.53-162.79,336.6-162.79s253.83,220.72,253.83,220.72c44.15,13.8,55.18,77.26,55.18,77.26,201.41,0,256.6,168.3,256.6,168.3,195.88-8.27,237.27,91.06,237.27,91.06Z"/>
      <path class="cls-5" d="M2837.25,742.19h-1108.34c75.48-155.82,211.8-131.46,211.8-131.46-7.29-270.23,231.28-211.8,231.28-211.8,36.52-58.43,77.91-4.88,77.91-4.88,8.94-41.15,45.53-99.42,152.27-127.4,162.61,122.74,309.5,283.98,435.08,475.54Z"/>
    </g>
  </g>
</svg>