<?xml version="1.0" encoding="UTF-8"?>
<svg id="Layer_2" data-name="Layer 2" xmlns="http://www.w3.org/2000/svg" viewBox="0 0 250 250">
  <defs>
    <style>
      .cls-1 {
        fill: #119046;
      }

      .cls-2 {
        fill: #fff;
      }

      .cls-3 {
        fill: #71cad1;
      }

      .cls-4 {
        fill: #e7e6e5;
      }

      .cls-5 {
        fill: #a7dbda;
      }
    </style>
  </defs>
  <g id="Layer_1-2" data-name="Layer 1">
    <g>
      <path class="cls-2" d="M249.56,125.84c0,68.57-55.77,124.16-124.56,124.16S.44,194.41.44,125.84,56.21,1.69,125,1.69s124.56,55.59,124.56,124.15"/>
      <path d="M238.28,164.77c-.32.89-.57,1.01-1.4.57-2.18-1.17-4.39-2.26-6.63-3.31-.83-.38-1.05-.87-1.06-1.76-.16-15.08-2.16-29.88-6.64-44.32-.5-1.61-1.49-3.22-1.46-4.81.02-1.56,1.09-3.09,1.62-4.66,3.07-8.98,5.14-18.19,6.42-27.58.16-1.14.45-1.38,1.51-.9,1.62.73,3.29,1.36,4.96,1.99.58.22.91.58,1.13,1.15,3.35,8.45,5.7,17.17,7.07,26.15.89,5.85,1.29,11.73,1.31,16.88,0,14.42-2.26,27.7-6.82,40.59M225.38,163.39c-7.61,10.75-15.7,21.1-25.3,30.19-2.53,2.4-5.17,4.67-8.05,6.65-.47.33-.95.6-1.55.63-9.96.5-19.86.1-29.58-2.39-.15-.04-.28-.13-.42-.2-4.3-.98-8.33-2.6-12.1-4.89-.42-.26-.59-.56-.6-1.07-.24-8.17-.82-16.31-1.94-24.41-1.11-8.1-2.64-16.11-5.3-23.86-.29-.85-.09-1.26.56-1.79,13.62-11.15,25.61-23.81,35.75-38.2.57-.81,1.03-1.04,2.03-.72,12.51,3.92,25.3,6.68,38.19,8.98.93.17,1.45.48,1.66,1.4.18.82.48,1.62.74,2.43,1.61,4.36,2.63,8.89,3.59,13.43,2.09,9.96,3.08,20.04,3.31,30.2.03,1.32-.18,2.47-.98,3.62M185.27,228.26c-14.23,8.2-29.49,13.28-45.82,15.22-8.94,1.06-17.89,1.17-26.83.11-3.69-.44-6.59-1.76-9.96-4.3-2.2-1.65-3.4-3.34-3.59-6.09-.37-5.39-.34-10.74.22-16.1.08-.75.34-1,1.05-1.17,2.6-.59,17.64-4.68,23.94-7.83,7.25-3.64,14.52-7.12,21.07-11.92.74-.54,1.24-.55,1.99-.05,2.72,1.79,10.46,4.59,10.46,4.59,5.07,1.31,10.18,2.33,15.42,2.77,5.35.45,10.7.51,16.05.27.6-.03.98-.05.98.75.03,6.76-4.81,23.65-4.99,23.75M95.62,236.56c-4.42.48-8.86.5-13.2-.38-3.05-.62-5.82-2.21-8.62-3.56-19.16-9.27-50.7-40.09-50.66-53.39,0-3.03-.39-6.04,0-9.06.21-.19.38-.04.54.06,8,4.98,16.83,6.94,26.13,7.29,3.13.11,6.24,0,9.35-.32.89-.09,1.35.14,1.84.91,5.78,9.21,12.37,17.8,20.09,25.49,3.96,3.95,8.27,7.48,12.9,10.63,0,0,2.63,1.93,2.36,4.05-.72,5.7-.69,11.46.13,17.17.12.81-.09,1.03-.85,1.12M7.7,122.51c-.24-1.82-.04-3.5.5-5.23,4-12.77,9.73-24.63,18.3-35.03,1.13-1.37,2.19-2.95,3.65-3.87,1.53-.97,3.44.03,5.17.21,10.01,1.03,20.04,1.68,30.09,2.01.95.03,1.07.31,1.04,1.18-.29,9.79,1.76,19.18,5.01,28.35,2.74,7.73,6.39,15.01,10.8,21.92.45.7.5,1.16-.03,1.88-8.85,12.2-16.14,25.26-21.69,39.27-.31.79-.71,1.18-1.56,1.19-.97.01-1.94.14-2.91.17-1.21.03-2.43,0-3.65,0-8.91.04-17.48-1.49-25.43-5.76-2.45-1.31-4.33-3.03-5.75-5.51-7.26-12.71-11.68-26.31-13.54-40.79M6.39,113.02c2.62-24.98,12.18-46.96,28.74-65.93-.47,1.19-.94,2.38-1.41,3.56-3.12,7.81-5.03,15.87-5.19,24.31-.07.47-.1.9-.5,1.3-8.08,8.13-13.77,17.82-18.23,28.26-1.14,2.67-3.26,8.4-3.42,8.49M87.73,11.74s.92.34-1.37,1.57c-8.11,4.36-28.9,14.59-29.12,13.73-.28-1.1,20.34-11.92,30.5-15.31ZM72.13,76.8c10.51-11.41,20.89-22.93,31.3-34.42.53-.59,1-.99,1.94-.88,12.26,1.46,24.39,3.57,36.24,7.07,5.52,1.63,10.92,3.6,16.03,6.31.53.28.98.55,1.21,1.24,4.83,14.79,10.51,29.27,16.13,43.77.35.91.26,1.52-.29,2.29-10.09,14.32-22.06,26.9-35.59,38.04-.63.52-1.16.6-1.97.38-12.56-3.44-25.29-6.11-38.23-7.67-4.23-.51-8.46-.95-12.72-1.14-.5-.02-.81-.16-1.08-.59-8.57-13.53-14.35-28.03-15.64-44.12-.07-.93-1.22-7.02,2.68-10.27M124.42,5.71c15.66-.03,29.85,2.59,43.57,7.76.92.35,1.75.81,2.51,1.44,6.74,5.52,12.91,11.55,17.39,19.13.61,1.03.38,1.32-.62,1.74-9.73,4.11-18.65,9.57-26.84,16.23-.44.36-.76.71-1.46.34-8.37-4.45-17.38-7.07-26.55-9.21-8.69-2.02-17.49-3.49-26.37-4.41-1-.1-1.53-.48-1.99-1.39-4.02-7.91-9.39-14.81-15.87-20.85-.75-.7-.66-.9.17-1.38,6.16-3.5,12.65-6.2,19.49-8.05,0,0,6.45-1.6,16.58-1.36ZM179.16,18.52s.69.24.97.38c11.06,5.71,20.99,12.96,29.82,21.71.45.44.85.94,1.28,1.41,3.94,3.81,7.39,8.03,10.64,12.42,4.94,6.69,9.14,13.81,12.58,21.38.05.11.07.22.17.53-1.92-.67-3.71-1.29-5.5-1.94-.19-.07-.33-.34-.46-.54-3.75-5.52-7.81-10.82-12.23-15.83l-.17-.31c-4.08-4.42-8.2-8.82-12.66-12.88-3.56-3.24-7.22-6.36-11.11-9.21-.53-.39-.95-.83-1.26-1.42-3-5.86-12.06-15.69-12.06-15.69h0ZM249.51,121.25C248.24,54.12,194.78.9,127.09.01,56.51-.91-.83,56.53,0,126.53c.81,67.92,56.51,123.47,125.38,123.47,69.56.08,124.39-57.25,123.8-126.95l.32-1.8Z"/>
      <path class="cls-4" d="M160.49,198.28c.03-.45.42-.55.73-.73,2.7-1.69,5.54-3.19,8.06-5.11,2.85-2.17,5.81-4.22,8.51-6.6,3.26-2.89,6.56-5.74,9.59-8.89,4.31-4.49,8.24-9.29,11.86-14.35,2.14-2.99,4.14-6.07,5.97-9.25,2.73-4.75,5.17-9.64,7.21-14.73,1.74-4.33,3.37-8.69,4.66-13.17.65-2.26,1.35-4.53,1.59-6.9.09-.87.41-1.64.81-2.39,1.61,4.36,2.63,8.89,3.59,13.43,2.09,9.96,3.08,20.04,3.31,30.2.03,1.32-.17,2.47-.98,3.62-7.61,10.75-15.7,21.1-25.3,30.19-2.53,2.4-5.17,4.67-8.05,6.65-.47.33-.95.6-1.54.63-9.96.5-19.86.09-29.58-2.39-.15-.04-.28-.13-.42-.2"/>
      <path class="cls-4" d="M245.11,124.18c0,14.42-2.26,27.7-6.82,40.59-.32.89-.57,1.01-1.4.57-2.18-1.17-4.39-2.27-6.63-3.31-.83-.38-1.05-.87-1.06-1.76-.16-15.08-2.16-29.88-6.64-44.32-.5-1.62-1.49-3.22-1.46-4.82.02-1.56,1.09-3.09,1.62-4.65,3.07-8.98,5.14-18.19,6.42-27.58.16-1.14.45-1.38,1.51-.9,1.62.73,3.29,1.36,4.96,1.99.58.22.91.58,1.13,1.15,3.35,8.45,5.7,17.17,7.07,26.15.89,5.85,1.29,11.73,1.31,16.88"/>
      <path class="cls-4" d="M216.25,57.73c.35-1.36-.29-2.58-.71-3.78-1.26-3.59-2.45-7.21-4.14-10.65-.19-.39-.32-.83-.18-1.29,3.93,3.81,7.39,8.03,10.63,12.42,4.94,6.69,9.14,13.81,12.58,21.38.05.11.07.22.17.53-1.92-.67-3.71-1.29-5.5-1.94-.2-.07-.33-.34-.46-.54-3.76-5.52-7.81-10.82-12.23-15.83l-.17-.31h0Z"/>
      <polygon class="cls-2" points="157.81 200.72 157.58 200.67 157.81 200.72 157.81 200.72"/>
      <path class="cls-1" d="M250,124.95c0-44.09-22.86-83.24-57.45-105.5-34.59,22.26-57.52,61.41-57.52,105.5s22.9,82.85,57.48,105.12c34.59-22.26,57.49-61.02,57.49-105.12"/>
      <path class="cls-3" d="M146.44,72.78c.2-.43.4-.86.61-1.29-.21.43-.41.86-.61,1.29"/>
      <polygon class="cls-1" points="146.41 72.84 146.44 72.78 146.41 72.84 146.41 72.84"/>
      <path class="cls-5" d="M249.5,136.23c.1-1.04.17-2.08.24-3.12l-55.88,28.21v-25.13l53.81-36.09c-.19-.94-.39-1.88-.6-2.82l-53.22,35.69v-31.54l44.83-28.98-.03-.06c-.2-.43-.4-.86-.61-1.29-.17-.36-.35-.72-.52-1.08l-43.67,28.23v-27.53l24.98-28.59c-.6-.67-1.19-1.35-1.8-2.01l-23.18,26.54V20.31c-.44-.29-.86-.57-1.31-.86-.45.29-.93.6-1.37.9v46.23l-23.16-26.52c-.61.66-1.21,1.33-1.8,2l24.96,28.57v27.57l-43.61-28.19c-.18.36-.35.72-.52,1.08-.2.43-.41.86-.61,1.29l-.03.06,44.76,28.94v31.54l-53.15-35.64c-.21.93-.41,1.87-.6,2.82l53.74,36.04v25.14l-55.86-28.16c.07,1.04.16,2.08.25,3.12l55.6,28.04v24.56l-49.06-22.74c.42,1.19.86,2.38,1.32,3.55l47.74,22.13v37.41c.44.29.89.64,1.34.93.45-.29.89-.58,1.34-.88v-37.43l47.96-22.22c.46-1.18.89-2.37,1.32-3.56l-49.28,22.84v-24.56l55.64-28.08Z"/>
    </g>
  </g>
</svg>