<?xml version="1.0" encoding="UTF-8"?>
<svg id="Layer_2" data-name="Layer 2" xmlns="http://www.w3.org/2000/svg" xmlns:xlink="http://www.w3.org/1999/xlink" viewBox="0 0 896.15 263.47">
  <defs>
    <style>
      .cls-1 {
        fill: #000;
      }

      .cls-1, .cls-2, .cls-3, .cls-4, .cls-5, .cls-6, .cls-7, .cls-8, .cls-9, .cls-10, .cls-11 {
        stroke-width: 0px;
      }

      .cls-2 {
        fill: #9c9a9f;
      }

      .cls-3 {
        fill: #e7e6e5;
      }

      .cls-4 {
        fill: none;
      }

      .cls-5 {
        fill: #a7dbda;
      }

      .cls-6 {
        fill: #71cad1;
      }

      .cls-12 {
        clip-path: url(#clippath);
      }

      .cls-7 {
        fill: #51bc8f;
      }

      .cls-8 {
        fill: #231f20;
      }

      .cls-9 {
        fill: #fff;
      }

      .cls-10 {
        fill: #e7f4f2;
      }

      .cls-11 {
        fill: #119046;
      }
    </style>
    <clipPath id="clippath">
      <path class="cls-4" d="M141.44,131.86c0,72.46,58.74,131.2,131.2,131.2s131.2-58.74,131.2-131.2S345.1.66,272.64.66s-131.2,58.74-131.2,131.2h0Z"/>
    </clipPath>
  </defs>
  <g id="Layer_1-2" data-name="Layer 1">
    <g>
      <g>
        <path class="cls-9" d="M261.07,132.96c0,71.97-58.34,130.31-130.3,130.31S.46,204.93.46,132.96,58.8,2.65,130.76,2.65s130.3,58.34,130.3,130.3"/>
        <path class="cls-1" d="M249.27,173.81c-.33.94-.59,1.07-1.47.6-2.28-1.22-4.59-2.38-6.94-3.47-.86-.4-1.1-.91-1.11-1.84-.17-15.82-2.26-31.36-6.94-46.52-.52-1.69-1.55-3.38-1.53-5.05.02-1.64,1.14-3.24,1.7-4.89,3.22-9.42,5.38-19.09,6.72-28.94.16-1.2.47-1.45,1.58-.95,1.7.76,3.45,1.43,5.19,2.09.6.23.95.61,1.18,1.2,3.5,8.87,5.97,18.02,7.39,27.45.93,6.14,1.35,12.31,1.37,17.72,0,15.14-2.37,29.07-7.14,42.6M235.77,172.37c-7.96,11.29-16.43,22.14-26.46,31.69-2.65,2.51-5.41,4.9-8.42,6.97-.5.34-.99.63-1.62.66-10.42.52-20.77.1-30.94-2.51-.15-.04-.29-.14-.44-.21-4.49-1.03-8.72-2.73-12.66-5.14-.44-.27-.62-.59-.63-1.13-.25-8.57-.86-17.12-2.03-25.62-1.16-8.5-2.76-16.9-5.54-25.04-.31-.89-.09-1.32.59-1.88,14.24-11.7,26.79-24.99,37.39-40.09.6-.85,1.08-1.09,2.13-.76,13.09,4.11,26.46,7.01,39.95,9.43.98.17,1.52.5,1.73,1.47.19.86.51,1.7.77,2.55,1.68,4.58,2.76,9.33,3.75,14.09,2.18,10.45,3.22,21.03,3.46,31.69.03,1.39-.18,2.6-1.03,3.8M193.81,240.45c-14.89,8.6-30.85,13.94-47.94,15.97-9.36,1.11-18.72,1.23-28.07.12-3.86-.46-6.9-1.84-10.42-4.51-2.3-1.74-3.55-3.51-3.75-6.39-.39-5.65-.35-11.27.23-16.9.08-.79.36-1.05,1.1-1.22,2.73-.61,18.46-4.91,25.04-8.22,7.59-3.82,15.19-7.47,22.04-12.51.77-.57,1.3-.58,2.08-.06,2.84,1.88,10.95,4.82,10.95,4.82,5.3,1.38,10.65,2.45,16.13,2.91,5.59.47,11.19.53,16.79.28.63-.03,1.02-.06,1.03.79.04,7.1-5.03,24.82-5.21,24.93M100.03,249.16c-4.63.51-9.27.53-13.81-.4-3.19-.65-6.09-2.32-9.02-3.74-20.04-9.73-53.04-42.07-53-56.03,0-3.18-.41-6.34,0-9.51.22-.2.4-.04.57.07,8.37,5.22,17.61,7.29,27.34,7.65,3.27.12,6.53,0,9.78-.34.93-.1,1.41.14,1.92.95,6.04,9.67,12.94,18.68,21.01,26.76,4.15,4.14,8.65,7.85,13.49,11.15,0,0,2.75,2.03,2.47,4.25-.75,5.99-.72,12.02.14,18.02.12.85-.09,1.09-.89,1.17M8.06,129.46c-.25-1.91-.05-3.67.52-5.49,4.18-13.4,10.18-25.85,19.14-36.76,1.18-1.44,2.29-3.1,3.81-4.06,1.6-1.01,3.6.04,5.41.22,10.47,1.08,20.96,1.77,31.48,2.11,1,.03,1.12.33,1.09,1.24-.3,10.28,1.84,20.13,5.24,29.76,2.86,8.11,6.68,15.76,11.3,23,.47.74.52,1.22-.03,1.97-9.26,12.8-16.88,26.51-22.69,41.21-.33.82-.74,1.23-1.63,1.24-1.02.01-2.03.15-3.05.18-1.27.03-2.54,0-3.82,0-9.33.04-18.29-1.56-26.6-6.05-2.56-1.38-4.53-3.18-6.02-5.78-7.59-13.34-12.22-27.62-14.16-42.81M6.68,119.5c2.74-26.22,12.75-49.28,30.06-69.19-.49,1.25-.98,2.49-1.47,3.74-3.26,8.2-5.26,16.66-5.43,25.52-.07.49-.11.95-.52,1.36-8.46,8.53-14.4,18.7-19.08,29.66-1.19,2.8-3.42,8.81-3.57,8.91M91.77,13.2s.97.36-1.44,1.65c-8.49,4.57-30.24,15.31-30.47,14.41-.29-1.15,21.27-12.51,31.9-16.07ZM75.46,81.49c10.99-11.98,21.85-24.07,32.74-36.13.56-.62,1.05-1.04,2.03-.93,12.82,1.53,25.51,3.75,37.91,7.42,5.78,1.71,11.43,3.78,16.76,6.63.55.3,1.03.58,1.26,1.3,5.06,15.52,10.99,30.72,16.87,45.93.37.95.27,1.59-.3,2.4-10.56,15.03-23.08,28.24-37.23,39.92-.66.55-1.21.63-2.06.4-13.14-3.61-26.45-6.41-39.99-8.05-4.42-.54-8.85-.99-13.31-1.2-.52-.02-.85-.16-1.14-.61-8.96-14.2-15.01-29.42-16.36-46.3-.08-.97-1.27-7.37,2.8-10.78M130.16,6.87c16.38-.03,31.22,2.72,45.58,8.15.97.37,1.83.85,2.62,1.51,7.05,5.8,13.51,12.13,18.19,20.08.63,1.08.4,1.38-.65,1.83-10.18,4.32-19.51,10.05-28.07,17.03-.46.38-.8.74-1.53.35-8.75-4.67-18.18-7.42-27.78-9.66-9.1-2.12-18.29-3.67-27.58-4.62-1.04-.11-1.6-.51-2.08-1.46-4.2-8.3-9.83-15.54-16.6-21.89-.79-.74-.69-.95.18-1.44,6.44-3.68,13.24-6.51,20.38-8.45,0,0,6.75-1.68,17.35-1.43ZM187.42,20.32s.72.25,1.02.4c11.57,5.99,21.96,13.6,31.2,22.78.47.47.89.98,1.33,1.48,4.12,4,7.73,8.42,11.13,13.04,5.16,7.02,9.56,14.49,13.16,22.44.05.11.08.24.18.56-2.01-.71-3.89-1.35-5.75-2.04-.2-.07-.34-.36-.48-.57-3.93-5.8-8.17-11.35-12.79-16.62l-.18-.32c-4.27-4.64-8.58-9.25-13.25-13.51-3.73-3.4-7.56-6.68-11.62-9.67-.56-.41-.99-.87-1.31-1.49-3.14-6.15-12.62-16.47-12.62-16.47h0ZM261.01,128.14C259.69,57.68,203.76,1.82,132.95.89,59.12-.07-.86,60.21,0,133.68c.85,71.29,59.11,129.58,131.16,129.58,72.76.09,130.12-60.08,129.51-133.24l.33-1.88Z"/>
        <path class="cls-3" d="M167.89,208.98c.03-.47.44-.57.76-.77,2.83-1.77,5.8-3.35,8.44-5.36,2.98-2.28,6.08-4.43,8.9-6.93,3.41-3.04,6.87-6.03,10.03-9.33,4.51-4.71,8.62-9.75,12.4-15.06,2.24-3.14,4.33-6.37,6.24-9.71,2.85-4.98,5.4-10.12,7.55-15.46,1.82-4.54,3.53-9.12,4.88-13.82.68-2.38,1.41-4.76,1.66-7.24.09-.91.43-1.72.84-2.51,1.68,4.58,2.76,9.33,3.75,14.09,2.18,10.45,3.22,21.03,3.46,31.69.03,1.39-.18,2.6-1.03,3.8-7.96,11.29-16.43,22.14-26.47,31.69-2.65,2.52-5.41,4.9-8.42,6.97-.5.34-.99.63-1.62.66-10.42.52-20.77.1-30.94-2.51-.16-.04-.29-.14-.44-.21"/>
        <path class="cls-3" d="M256.4,131.21c0,15.14-2.37,29.07-7.14,42.6-.33.94-.59,1.06-1.47.6-2.28-1.22-4.59-2.38-6.94-3.47-.86-.4-1.1-.91-1.11-1.84-.17-15.82-2.26-31.36-6.94-46.52-.52-1.7-1.56-3.38-1.53-5.05.02-1.63,1.14-3.24,1.7-4.89,3.22-9.42,5.38-19.09,6.72-28.94.16-1.2.47-1.45,1.58-.95,1.7.76,3.45,1.43,5.19,2.09.6.23.95.61,1.18,1.2,3.5,8.87,5.97,18.02,7.39,27.45.93,6.14,1.35,12.31,1.37,17.72"/>
        <path class="cls-3" d="M226.22,61.47c.37-1.43-.3-2.71-.74-3.96-1.32-3.77-2.57-7.57-4.33-11.17-.2-.41-.34-.87-.18-1.35,4.12,4,7.73,8.43,11.12,13.04,5.16,7.02,9.57,14.49,13.16,22.44.05.11.08.24.18.56-2.01-.7-3.89-1.35-5.75-2.04-.2-.07-.34-.36-.48-.57-3.93-5.8-8.17-11.35-12.79-16.62l-.18-.33h0Z"/>
        <polygon class="cls-9" points="165.08 211.54 164.84 211.49 165.08 211.54 165.08 211.54"/>
        <path class="cls-5" d="M403.7,132.14c0,72.32-58.62,130.94-130.94,130.94s-130.94-58.62-130.94-130.94S200.44,1.19,272.76,1.19s130.94,58.62,130.94,130.94"/>
        <g class="cls-12">
          <path class="cls-7" d="M24.62,46.84c-.33,5.09,7.45,4.09,3.65,8.21-2.95,3.2-5.62-.47-6.22,5.16-1.2,11.14,15.48,6.05,20.25,6.61-4.19,3.64-11.04,1.86-14.69,5.74,2.87,1.51,7.73-.38,10.84-1.54,5.35-1.99,3.1-2.99,6.42-6.63,4.74-5.19,16.36.49,21.38,3.54,4.02,2.44,6.17,5.3,10.28,8.02,1.6,1.06,2.28,2.52,4.1,3.45,2.57,1.32,6.43.16,8.27,3.21,2.71,4.48-2.08,13.12-.44,18.77,1.29,4.41,5.01,7.77,7.6,11.17,3.29,4.3,5.09,6.69,6.81,11.45,1.01,2.78,2.29,7.48,6,6.61-.69-3.51-1.55-8.73-4.4-11.31,3.2,1.08,6.73,4.3,8.6,7.07,1.96,2.91.73,6.11,2.17,8.54,4.54,7.68,12.54,4.77,18.9,7.8,5.01,2.39,8,9.32,12.55,12.35,5.73,3.81,9.31-2.66,10.6,5.45.87,5.51-1.73,8.12-3.88,12.84-2.97,6.51-.69,12.6,3.23,17.42,1.99,2.45,5.33,4.49,7.04,7.4.68,1.16-.32,2.91.36,3.92,1.04,1.56,2.95,1.84,4.03,3.25,5.1,6.66-.67,21.9-1.52,29.74-.66,6.04-1.52,9.99-3.64,15.36-1.9,4.81-1.63,9.5-.17,14.37,2.82,9.41,5.82,11.42,16.16,10.88-3.54-1.86-7.37-5.54-5.17-9.65.7-1.3,4.29-1.81,4.54-3.42.61-3.9-4.43-1.24-5.08-3.88-.46-1.85,4.14-3.88,5.11-5.16,1.15-1.5,1.16-4.96,2.63-6.07,4.64-3.46,9.95,2.09,12.34-6.17-8.73-.78,1.78-5.59,3.22-7.28,1.6-1.88,3.11-4.45,4.47-6.41,1.32-1.9,1.92-4.28,3.12-5.96,2.2-3.06,3.31-2.6,7.27-3.6,5.6-1.41,4.39-1.18,5.7-5.65,1.04-3.54,1.57-7.28,2.47-10.73,1.04-3.96,1.26-3.38,3.99-6.89,6.97-8.95-2.59-12.47-9.28-15.63-4.24-2-7.28-3.52-11.82-5.06-4.85-1.65-3.97-3.08-6.99-6.32-3.02-3.25-6.96-3.25-10.55-5.02-3.11-1.54-4.96-4.7-8-6.44-3.12-1.79-4.16-.66-7.13-.72-2.88-.06-5.2-1.58-8.06-1.83-5.29-.47-12.73,4.01-16.39-2-.86-1.41-.13-3.89-.92-5.19-.73-1.2-2.39-1.1-3.08-1.99-2.18-2.75-2.9-1.58-2.47-5.18.22-1.87,2.99-2.51,2.49-5.1-3.52-.2-7.54.76-10.35-1.95-4.88-4.71,0-9.08,4.86-11.02,2.78-1.11,10.16-4.01,12.99-2.82,2.74,1.15,2.34,5.97,4.89,5.95,1.19-2.44,1.35-7.31,2.69-9.74,1.98-3.6,5.8-3.96,7.08-7.85.87-2.64-.23-4.56,1.4-7.23,1.35-2.21,3.93-2.48,5.3-4.49,1.29-1.88.39-4.32,2.13-5.7.9-.71,5.62-.43,7.04-.4-.58,1.12-1.85,2.53-3.02,3.44,3.53.71,7.94-2.52,10.73-4.13-.26-.62-.14-1.74-.36-2.4,4.35-.75,6.74,2.92,10.64,1.9,1.3-3.81-1.91-3.89-3.53-6.2-1.6-2.28-1.79-5.81-3.55-7.6-1.43-1.46-3.41-1.11-4.69-2.04-2.01-1.45-2.75-3.39-4.23-5.42-1.65-2.26-6.09-7.79-7.69-1.32-5.03-.36-6.35-8.28-12.53-7.22-5.34.91-2.27,3.32-2.23,6.72.05,3.5-4.16,10.19-2.15,12.77-4.24,2.48-5.49-2.9-8.21-4.74-3.47-2.35-8.42-2.84-12.23-5.5-4.01-2.8-5.4-2.87-.23-8.02,1.25-1.25,4.89-4.49,6.75-4.65,3.57-.29,5.31,3.53,8.86,1.35-.73-3.35-4.9-2.04-4.97-5.84,2.09-.83,4.26-1.43,6.49-1.81.73-1.82.38-3.39-2.46-4.1,3.41-1.06,12.25-2.32,15.08,1.19,3.73,4.62-5.73,5.64-7.43,8.08,3.08,2.1,6.46-.89,9.44.21,2.33.86,1.9,3.93,6.4,3.44.02.62.19,1.35.21,1.9,7.7,2.03,3.59-4.12,3.92-5.45.51-2.02,3.21-2.6,3.55-4.79-3.54-1.05-9.22.08-8.69-5.53-5.2-1.58-10.2-2.71-15.38-4.71-3.56-1.38-3.32-1.41-7.57-1.09-1.92.15-4.92-.24-6.31.04-11.41,2.28,4.61,6.12,1.54,9.82-1.2,1.45-8.37-.75-9.16-2.16-1.84-3.26,1.25-4.68,1.91-7.55-8.29-3.44-6.1,7.94-12.5,10.51-3.5,1.41-7.86-1.52-11.46-1.41-2.12.07-4.1,1.21-6.12,1.02-4.21-.39-7.8-2.64-12.17-3.02-2.13-.19-4.43-.43-6.54-.48-7.6-.19-16.06-1.12-23.11.19-6.61,1.23-11.65-.68-18.23-1.83-5.94-1.04-12.62.78-18.63,1.06-2.37.11-5.99-1.59-4.83,2.83,1.02-1.25-.36,1.93-.02.3"/>
          <path class="cls-9" d="M203.22,21.16c-.5.12-.95.26-1.34.42.11.07.22.14.33.21.34-.21.67-.43,1.01-.64"/>
          <path class="cls-2" d="M199.44,23.63c-.18,0-.37,0-.55,0-.14,0-.29,0-.43,0-.73.5-1.45,1.01-2.17,1.52.17.1.34.21.51.31.88-.62,1.76-1.24,2.65-1.84M201.88,21.59c-1.02.41-1.67.94-1.82,1.62.71-.47,1.43-.95,2.15-1.41-.11-.07-.22-.14-.33-.21"/>
          <path class="cls-9" d="M191.19,29c-.88.7-1.74,1.4-2.6,2.11.24.04.47.08.71.13.74-.61,1.49-1.22,2.24-1.81-.12-.14-.23-.28-.35-.43"/>
          <path class="cls-2" d="M193.6,27.13c-.81.61-1.62,1.24-2.41,1.87.12.14.23.28.35.43.8-.63,1.6-1.25,2.41-1.87-.12-.14-.23-.29-.35-.43"/>
          <path class="cls-9" d="M196.29,25.15c-.9.65-1.8,1.31-2.69,1.98.12.14.23.28.35.43.94-.71,1.89-1.41,2.85-2.09-.17-.11-.34-.21-.51-.31"/>
          <path class="cls-10" d="M237.92,19.02c-1.94,0-4.01,1.27-5.78,1.49-.56.07-1.38.1-2.41.1-1.78,0-4.16-.08-6.8-.16-2.65-.08-5.56-.16-8.39-.16-4.38,0-8.58.19-11.32.88-.34.21-.67.42-1.01.64-.72.46-1.44.93-2.15,1.41-.03.13-.04.27-.03.41-.19,0-.39,0-.59,0-.89.6-1.77,1.22-2.65,1.84-.96.68-1.91,1.38-2.85,2.09-.81.61-1.62,1.24-2.41,1.87-.75.6-1.5,1.2-2.24,1.81,1.73.35,3.25,1.03,4.4,2.22,2.29,2.39.4,4.58,1.11,7.23.65,2.45,2.96,4.4,4.25,6.65-9.19,5.46,6.36,11.95,10.13,13.66,1.7.77,2.93,2.51,4.62,2.51.34,0,.7-.07,1.08-.23,4.46-1.89-.06-7.84,3.02-10.57,2.53-2.24,11.91-1.33,15.17-2.55,3.92-1.47,3.05-3.73,5.48-5.76,3.87-3.24,14.34-5.25,5.64-12.34,3.05-1.59,7.7-4.86,8.26-8.39-3.44-1.34-7.3-.96-10.81-2.34-.81-.32-1.23-1.83-2.84-2.2-.29-.07-.58-.1-.87-.1"/>
          <path class="cls-9" d="M371.59,45.71c.03.19.06.38.12.56-.03,0-.05,0-.07.01,19.98,22.99,32.07,53.01,32.07,85.85,0,7.5-.63,14.86-1.84,22.01.04-.06.08-.11.12-.17,1.22-7.19,1.86-14.58,1.86-22.12,0-32.97-12.16-63.1-32.24-86.15"/>
          <path class="cls-10" d="M320.05,42.25c-1.82,0-3.53.15-5.05.47-2.88.6-5.17,1.86-7.85,2.96-2.14.88-6.04,1.47-7.9,2.93-1.69,1.33-2.06,3.72-3.85,5.12-2.41,1.88-6.2,1.86-8.67,3.92,5.08,2.61-1.41,6.66,3.97,6.66.45,0,.98-.03,1.61-.09,2.18-.21,3.79-.87,4.99-.87,1.47,0,2.34.99,2.91,5.04,1.51-.26,5.12-3.23,5.45-4.31.79-2.52-2.02-3.93-1.26-6.15.37-1.09,3.8-2.79,4.61-3.62,1.03-1.06,1.73-3.43,3.32-4.59,1.13-.82,3.03-1.88,4.45-1.88,1.12,0,1.95.66,1.88,2.6-.15,4.35-7.35,3.24-7.64,7.33-.24,3.29,2.81,3.97,6.41,3.97,1.26,0,2.58-.08,3.86-.16,1.28-.08,2.51-.16,3.57-.16s2.02.09,2.65.35c-.22-.04-.44-.06-.68-.06-3.27,0-8.43,3.65-10.4,5.24-3.1,2.5-3.05,3.74-8.41,4.86-1.73.36-5.37,2.1-7.86,2.1-.54,0-1.02-.08-1.42-.27-2.04-.98-1.13-4.11-2.98-4.96-.57-.26-1.03-.38-1.39-.38-2.19,0-1.03,4.19-.86,5.76-.28-.02-.56-.03-.82-.03-5.15,0-8.05,3.85-12.51,6.06-2.4,1.19-7.11,1.5-8.62,3.7.9,2.43,6.46,4.26,5.53,7.31-1.27,4.16-9.13,1.93-11.33,4.63-1.24,1.53-.69,6.74.9,8.62,1.47,1.74,6.45,1.17,5.3,4.71-.85,2.6-4.35.65-5.73,2.58-.81,1.13.73,4.15.02,5.54-.9,1.77-2.51.83-3.43,2.03-2.52,3.3-4.63,6.41-7.49,9.68-3.71,4.25-3.31,4.63-2.08,9.5,1.46,5.81-1.16,10.55,1.2,15.92,1.68,3.8,5.46,8.2,9.88,9.17.68.15,1.32.2,1.94.2.69,0,1.37-.06,2.05-.13.68-.06,1.38-.13,2.12-.13.15,0,.3,0,.45,0,2.3.09,4.16.95,6.39.95.66,0,1.35-.07,2.09-.27,1.85-.48,2.96-2.03,5.07-2.03.12,0,.25,0,.38.02-.02,0-.04,0-.05,0-.37,0,.84.51,2.19,1.01s2.86,1.01,3.09,1.01c.05,0,.04-.03-.05-.08,7.53,4.69-.48,8.76,1.5,14.7.86,2.57,5.35,2.61,6.7,5.27.73,1.45.78,5.02,1.11,6.8,1.3,6.93-3.64,11.07-2.14,18.16.73,3.46,2.18,3.43,3.61,6.02,1.56,2.83.81,3.49,1.25,6.69.72,5.22,5.4,7.95,5.45,12.89.02,2.31-4.38,2.8-.62,4.65.45.22.89.32,1.34.32,2.61,0,5.15-3.29,6.86-4.27,3.83-2.2,10.69-1.62,13.51-4.9,3.02-3.53-.37-4.48-.09-7.13.19-1.77.36-2.07.71-2.07.09,0,.2.02.32.04.12.02.26.04.42.04.48,0,1.15-.2,2.09-1.18,2.42-2.52,1.91-3.44,2.15-7.03.46-6.96,1.76-6.09,6.69-9.84,7.85-5.97-.29-12.53,1.01-20.08,1.05-6.1,7.68-10.78,10.54-16.71,1.21-2.51,1.66-6.49,3.08-8.65,1.45-2.21,4.42-2.95,4.34-5.9-.13,0-.27-.01-.4-.01-1.41,0-2.92.54-4.4,1.09-1.49.54-2.95,1.08-4.28,1.08-.41,0-.8-.05-1.18-.17-1.94-.61-3.82-3.53-5.56-5.15-4.73-4.39-9.08-9.92-11.35-16.96-.96-2.96-2.24-4.53-3.81-6.95-1.03-1.59-2.49-5.73-3.81-6.97-1.46-1.38-8.4-3.03-11.96-3.03-.34,0-.65.02-.93.05.49,2.39.04,3.17-.84,3.17-1.44,0-4.02-2.11-5.39-2.72-3.05-1.36-16.28-1.65-11.33-7.21-3.25,0-8.47.67-12.93.67-3.8,0-7.05-.48-8.08-2.27-1.43-5,5.89-6.57,8.68-8.65.4-.3.07-2.03.84-2.58.17-.12.38-.16.61-.16.29,0,.62.06.94.13.32.06.65.13.93.13.18,0,.34-.02.48-.09,1.01-.48,3.68-2.02,4.65-2.09.17-.01.35-.02.52-.02,3.05,0,5.77,2.08,7.71,4.92,2.35,3.44-.94,4.97,1.29,7.4,1.16-.76,2.73-1.35,4.06-2.09,1.49-5.77-5.76-8.32-9.2-11.72.47-1.36,1.39-1.9,2.56-1.9,3.94,0,10.61,6.23,11.57,8.31,1.07,2.32.72,7.78,2.81,8.49.26.09.53.13.79.13,1.93,0,3.7-2.23,3.6-3.76-.08-1.34-5.43-1.92-2.7-5.01.74-.84,1.4-1.17,1.99-1.17,1.85,0,2.96,3.3,3.56,4.15,1.97,2.78.99,3.78,5.66,4,.15,0,.3,0,.45,0,1.02,0,1.96-.16,2.91-.32.94-.16,1.89-.32,2.92-.32.75,0,1.54.09,2.41.32-.45,6.15,2.85,11.23-4.99,11.23-.2,0-.4,0-.61,0-.07,4.6,5.27,6.71,7.16,10.4,1.42,2.77,1.23,5.63,3.42,8.15,1.41,1.63,3.9,2.09,5.1,3.52,2.15,2.55,1.87,6.35,4.45,8.74,6.73-2.72,11.92-4.65,17.84-8.92,7.29-5.26,4.88-5.35.79-11.32-1.49,1.94-2.83,2.7-4.06,2.7-3.66,0-6.32-6.8-8.97-9.35,1.03-.83,1.86-1.16,2.57-1.16,2.02,0,3.06,2.65,4.98,3.8,4.09,2.46,9.19,4.72,13.96,5.33.2.02.41.04.62.04.56,0,1.17-.07,1.78-.15.61-.08,1.22-.15,1.81-.15.54,0,1.05.06,1.52.25,3.95,1.57-.22.75,2.57,2.58,2.21,1.45,3.42,3.35,5.15,3.35.96,0,2.07-.58,3.6-2.14-.16,5.22,2.59,21.33,6.38,24.98,1.43-.47,2.43-1.26,3.17-2.25,1.21-7.15,1.84-14.51,1.84-22.01,0-32.84-12.09-62.86-32.07-85.85-.53.1-1.06.13-1.59.13-1.02,0-2.02-.15-3.03-.29-1.01-.14-2.03-.29-3.07-.29-.39,0-.79.02-1.2.07-3.98.49-9.08,2.4-12.84,3.81-4.1,1.54-2.86,4.21-5.79,5.7-.28.14-.54.2-.78.2-.6,0-1.08-.39-1.57-.79-.48-.39-.97-.79-1.6-.79-.06,0-.13,0-.2.01-1.42.19-3.56,2.08-5.12,2.53-.98-1.86-5.8-4.7-2.49-6.18.41-.18.83-.26,1.25-.26,1.09,0,2.23.5,3.37,1.01,1.15.5,2.3,1.01,3.44,1.01,1.06,0,2.11-.44,3.1-1.74-4.79-5.05-15.24-8.18-23.48-8.18"/>
          <path class="cls-7" d="M422.25,171.06c-1.29,1.58-2.56,3.47-2.66,5.57-2.75,1.17-4.15-2.07-6.63.08-1.26,1.09-.14,4.8-2.72,6.71-3.51,2.6-11.58,2.25-13.85,7.05-1.78,3.76,1.19,2.66,1.72,5.77.37,2.14-.39,5.79-.13,8.38.32,3.08-.71,6.08,1.38,8.1,4.15,4,5.43-.74,7.96-2.54,4-2.85,21.99-5.62,22.18,1.4,4.36,1.32,9.8.71,8.73,7.2,2.98,1.42,10.15.07,12.26-2.48.54-.65-.38-2.14.05-2.86.99-1.64,1.96-2.46,3.14-4.07,2.01-2.74,4.69-5.48,4.13-9.44-.92-6.59-10.6-12.05-13.53-17.82-1.15-2.26-.7-4.59-1.83-6.95-1.14-2.39-3.27-2.86-3.83-5.61-5.53,2.21,1.85,7.44-.03,10.94-1.18,2.2-8.9-.42-9.88-2.49-1.19-2.53,4.1-3.64.52-6.22-1.97-1.42-5.94.78-6.99-.72"/>
          <path class="cls-9" d="M272.64.66c-9.89,0-19.52,1.09-28.78,3.17.2.14.39.29.57.44,9.12-2.01,18.6-3.07,28.33-3.07,11.08,0,21.83,1.38,32.1,3.96.16-.13.32-.26.48-.39-10.45-2.68-21.41-4.11-32.7-4.11"/>
          <path class="cls-10" d="M272.76,1.19c-9.73,0-19.2,1.06-28.33,3.07.35.29.68.61.98.93,1.88,2.03,3.43,4.57,5.99,5.62,1,.41,2.05.55,3.13.55,1.71,0,3.47-.35,5.19-.5.62-.06,1.25-.08,1.88-.08,7.21,0,14.36,3.7,18.43,9.67,2.13,3.12,4.02,7.21,7.77,7.73.24.03.48.05.72.05,2.76,0,5.25-2.19,6.56-4.69,1.43-2.72,1.89-5.83,2.93-8.71,1.36-3.76,3.78-7.12,6.86-9.67-10.27-2.59-21.02-3.96-32.1-3.96"/>
          <path class="cls-9" d="M223.71,253.58s-.04.02-.06.03c9.4,3.78,19.33,6.51,29.65,8.04-10.31-1.53-20.22-4.27-29.6-8.06"/>
          <path class="cls-10" d="M273.47,223.16c-4.49,9.08-14.42,15.16-24.52,15.16-.43,0-.86-.01-1.29-.03-1.75-.09-3.54-.35-5.29-.35-1.23,0-2.45.13-3.62.53-4.47,1.53-6.66,6.38-9.36,10.26-1.39,2-3.46,3.87-5.67,4.86,9.38,3.79,19.29,6.53,29.6,8.06,6.31.93,12.77,1.42,19.33,1.42,14.43,0,28.31-2.33,41.29-6.63-5.41-4.25-10.82-8.5-16.22-12.76-3.78-2.97-8.34-6.09-12.9-6.09-1.07,0-2.15.17-3.21.56-1.83.67-3.75,1.95-5.56,1.95-.52,0-1.03-.11-1.53-.36-2.74-1.41-1.81-5.51-.5-8.29,1.31-2.79,2.21-6.9-.55-8.28"/>
        </g>
        <path class="cls-8" d="M272.64,5.03c69.75,0,126.5,56.75,126.5,126.5s-57.49,126.91-127.24,126.91c-33.78,0-64.78-13.57-88.64-37.46-23.85-23.89-36.98-55.65-36.98-89.45s13.13-65.57,36.98-89.45c23.85-23.89,55.59-37.05,89.37-37.05M272.64,0c-72.64,0-129.9,58.89-129.9,131.53s56.52,131.94,129.16,131.94,132.27-59.3,132.27-131.94S345.28,0,272.64,0h0Z"/>
        <path class="cls-11" d="M261.52,132.02c0-46.28-23.91-87.36-60.1-110.73-36.18,23.37-60.17,64.45-60.17,110.73s23.95,86.96,60.13,110.32c36.18-23.37,60.13-64.05,60.13-110.32"/>
        <path class="cls-6" d="M153.19,77.27c.21-.45.42-.91.64-1.36-.21.45-.43.9-.64,1.36"/>
        <polygon class="cls-11" points="153.16 77.33 153.19 77.27 153.16 77.33 153.16 77.33"/>
        <path class="cls-5" d="M261,143.86c.1-1.09.18-2.18.25-3.28l-58.46,29.61v-26.37l56.29-37.88c-.2-.99-.4-1.98-.62-2.96l-55.67,37.46v-33.1l46.9-30.42-.03-.06c-.21-.45-.42-.91-.64-1.36-.18-.38-.36-.76-.55-1.14l-45.69,29.63v-28.9l26.13-30.01c-.62-.71-1.25-1.41-1.88-2.11l-24.25,27.86V22.19c-.46-.31-.9-.6-1.37-.9-.47.3-.97.63-1.44.94v48.52l-24.23-27.83c-.64.69-1.27,1.39-1.89,2.1l26.11,29.99v28.93l-45.62-29.59c-.18.38-.36.76-.55,1.14-.21.45-.43.9-.64,1.36l-.03.06,46.83,30.37v33.1l-55.6-37.41c-.22.98-.43,1.97-.62,2.96l56.22,37.83v26.38l-58.43-29.56c.07,1.09.16,2.19.26,3.27l58.17,29.43v25.78l-51.32-23.87c.44,1.25.9,2.5,1.38,3.73l49.94,23.23v39.26c.46.31.93.67,1.4.98.47-.3.94-.61,1.4-.92v-39.29l50.17-23.32c.48-1.24.94-2.49,1.38-3.74l-51.55,23.97v-25.77l58.21-29.47Z"/>
      </g>
      <path class="cls-1" d="M481.13,129.32v-24.16h4.83c3.22,0,4.83,1.61,4.83,4.83v14.5c0,3.22-1.61,4.83-4.83,4.83h-4.83ZM514.96,134.15v-33.83c0-12.88-6.44-19.33-19.33-19.33h-33.83c-3.22,0-4.83,1.61-4.83,4.83v91.82c0,3.22,1.61,4.83,4.83,4.83h14.5c3.22,0,4.83-1.61,4.83-4.83v-24.16h14.5c12.89,0,19.33-6.44,19.33-19.33h0ZM551.98,172.81l.29,1.79.63,3.96c.39,2.61,2.19,3.91,5.41,3.91h14.5c2.58,0,3.87-1.35,3.87-4.06,0-.68-.08-1.43-.24-2.27l-1.21-6.38-2.42-12.66-9.66-50.74-2.42-12.71-1.21-6.33c-.81-4.22-2.82-6.33-6.04-6.33h-19.33c-3.22,0-5.24,2.11-6.04,6.33l-1.21,6.33-2.42,12.71-9.66,50.74-2.42,12.66-1.21,6.38c-.16.84-.24,1.6-.24,2.27,0,2.71,1.29,4.06,3.87,4.06h14.5c3.22,0,5.04-1.31,5.46-3.91l.58-3.96.29-1.79h16.33ZM539.37,148.65l4.45-29,4.45,29h-8.89ZM615.33,105.16c3.22,0,4.83-1.61,4.83-4.83v-14.5c0-3.22-1.61-4.83-4.83-4.83h-43.49c-3.22,0-4.83,1.61-4.83,4.83v14.5c0,3.22,1.61,4.83,4.83,4.83h9.67v72.49c0,3.22,1.61,4.83,4.83,4.83h14.5c3.22,0,4.83-1.61,4.83-4.83v-72.49h9.66ZM657.33,143.81v33.83c0,3.22,1.61,4.83,4.83,4.83h14.5c3.22,0,4.83-1.61,4.83-4.83v-91.82c0-3.22-1.61-4.83-4.83-4.83h-14.5c-3.22,0-4.83,1.61-4.83,4.83v33.83h-9.66v-33.83c0-3.22-1.61-4.83-4.83-4.83h-14.5c-3.22,0-4.83,1.61-4.83,4.83v91.82c0,3.22,1.61,4.83,4.83,4.83h14.5c3.22,0,4.83-1.61,4.83-4.83v-33.83h9.66ZM737.45,167.98l1.84,7.25c1.19,4.83,3.4,7.25,6.62,7.25h14.5c3.22,0,5.24-2.11,6.04-6.33l1.21-6.38,2.42-12.66,9.67-50.74,2.42-12.71,1.21-6.33c.16-.84.24-1.59.24-2.27,0-2.71-1.29-4.06-3.87-4.06h-14.5c-3.22,0-5.24,2.61-6.04,7.83l-1.21,7.88-7.25,47.12-7.25-47.12-1.21-7.88c-.8-5.22-2.82-7.83-6.04-7.83h-4.83c-3.22,0-5.24,2.61-6.04,7.83l-1.21,7.88-7.25,47.12-7.25-47.12-1.21-7.88c-.81-5.22-2.82-7.83-6.04-7.83h-14.5c-2.58,0-3.87,1.35-3.87,4.06,0,.68.08,1.43.24,2.27l1.21,6.33,2.42,12.71,9.66,50.74,2.42,12.66,1.21,6.38c.8,4.22,2.82,6.33,6.04,6.33h14.5c3.22,0,5.44-2.42,6.67-7.25l1.79-7.25,3.62-14.5,3.62,14.5h0ZM815.83,172.81l.29,1.79.63,3.96c.39,2.61,2.19,3.91,5.41,3.91h14.5c2.58,0,3.87-1.35,3.87-4.06,0-.68-.08-1.43-.24-2.27l-1.21-6.38-2.42-12.66-9.67-50.74-2.42-12.71-1.21-6.33c-.8-4.22-2.82-6.33-6.04-6.33h-19.33c-3.22,0-5.24,2.11-6.04,6.33l-1.21,6.33-2.42,12.71-9.67,50.74-2.42,12.66-1.21,6.38c-.16.84-.24,1.6-.24,2.27,0,2.71,1.29,4.06,3.87,4.06h14.5c3.22,0,5.04-1.31,5.46-3.91l.58-3.96.29-1.79h16.33ZM803.22,148.65l4.45-29,4.45,29h-8.89ZM851.35,177.02c0,3.64,1.51,5.46,4.54,5.46h14.93c3.13,0,4.69-1.82,4.69-5.46v-38.03l10.87-28.99,9.47-25.37c.19-.52.29-.98.29-1.4,0-1.48-1.26-2.22-3.77-2.22h-14.5c-3.22,0-5.24,1-6.04,3l-1.21,3.05-7.25,18.12-7.25-18.12-1.21-3.05c-.81-2-2.82-3-6.04-3h-14.5c-2.51,0-3.77.74-3.77,2.22,0,.42.1.89.29,1.4l1.35,3.62,2.75,7.25,5.46,14.5,10.87,28.99v38.03h0Z"/>
    </g>
  </g>
</svg>